<svg width="48" height="48" viewBox="0 0 48 48" fill="none" xmlns="http://www.w3.org/2000/svg">
<g clip-path="url(#clip0_2_462)">
<path d="M26.7343 37.1402C27.9772 38.0646 24.6543 37.921 24.6543 37.921C21.3939 37.6836 18.1772 36.906 15.1729 35.6193C12.737 34.5762 10.4103 33.174 8.64582 31.2003C6.88132 29.2265 5.71644 26.6282 5.82262 23.983C5.93193 21.2598 7.4903 18.955 9.66704 17.8182C11.3129 16.9594 13.3116 16.7689 15.3072 17.5684C16.4096 18.0087 17.3309 18.7988 18.1991 19.6077C19.9729 21.2598 21.6188 23.0461 23.1209 24.948C24.9479 27.2653 26.5437 29.7824 27.6399 32.5244C27.6805 32.6244 27.718 32.7243 27.7586 32.8274C27.8148 32.9741 27.8679 33.1209 27.9179 33.2677C27.9585 33.3864 27.9959 33.5051 28.0303 33.6269C28.0553 33.7205 28.0803 33.8174 28.1021 33.9142C28.1177 33.986 28.1302 34.0609 28.1396 34.1359C28.1458 34.189 28.149 34.2452 28.149 34.2983C28.149 34.3358 28.1458 34.3764 28.1396 34.4138C28.1334 34.4388 28.1271 34.4669 28.1146 34.4888C28.074 34.5638 27.9741 34.5887 27.896 34.5856C27.8741 34.5856 27.8523 34.5825 27.8304 34.57C27.7961 34.5513 27.7805 34.5138 27.7742 34.4763C27.768 34.4388 27.7742 34.4014 27.7742 34.3608C27.7836 34.3795 27.7961 34.3951 27.8054 34.4138C27.8648 34.5013 27.9366 34.5794 28.0084 34.6574C28.0959 34.7511 28.1864 34.8417 28.277 34.926C28.4613 35.0978 28.6549 35.2571 28.8516 35.4132C29.0484 35.5694 29.2389 35.7193 29.4294 35.8785C29.5262 35.9597 29.623 36.0409 29.7105 36.1284C29.7292 36.1471 29.7448 36.1627 29.7636 36.1815C30.1196 36.5968 29.4638 36.931 29.1515 37.0622C28.5675 37.3057 27.4026 37.1496 26.7686 37.1246L26.7467 37.1371L26.7343 37.1402Z" fill="#465669"/>
<path d="M27.896 32.3165C29.1452 33.6032 30.4194 34.868 31.7029 36.1203C34.0764 38.4376 36.4843 40.7299 39.042 42.8441C39.9727 43.6124 40.8752 44.4431 41.9401 45.0271C42.6584 45.4175 43.5516 45.7267 44.3917 45.658C45.4941 45.5674 46.2093 44.6773 45.7221 43.5937C45.3192 42.7005 44.5791 42.0228 43.8202 41.4294C42.902 40.708 41.9839 39.9866 41.0657 39.2621C37.1463 36.1703 33.2457 33.0598 29.3607 29.9305C29.3451 29.918 29.0859 29.7244 29.0921 29.7119L27.896 32.3196V32.3165Z" fill="#333333"/>
<path d="M32.2495 36.3219C30.9659 35.0696 29.6917 33.8048 28.4425 32.5181C28.4425 32.5181 28.6018 32.1714 28.6736 32.0153C28.2801 31.6468 27.8866 31.2783 27.4931 30.9098C27.4931 30.9098 27.4682 30.8879 27.4682 30.8848L26.0815 33.3957C26.6499 34.0765 27.2246 34.7479 27.8023 35.4162C29.1265 36.9528 30.4725 38.4737 31.8404 39.9727C33.9515 42.2837 36.1033 44.6666 38.5517 46.6278C39.0857 47.0557 39.6791 47.5429 40.3443 47.749C40.7316 47.8677 41.1563 47.9395 41.5591 47.927C41.8465 47.9176 42.14 47.8489 42.3774 47.6834C42.6335 47.5023 42.8021 47.2118 42.8771 46.9058C43.0051 46.3811 42.8989 45.7971 42.6647 45.3162C41.531 44.7384 40.5036 43.8015 39.5885 43.0426C37.0308 40.9283 34.623 38.6361 32.2495 36.3188V36.3219Z" fill="#333333"/>
<path d="M44.7194 45.4463C44.429 45.4744 44.1292 45.437 43.8418 45.3807C43.5077 45.3183 43.1798 45.2152 42.8737 45.0653C42.3678 44.8217 41.6901 44.4001 41.2373 44.0753C40.0568 43.2259 39.1448 42.3639 38.0737 41.3927C37.2398 40.6369 36.4278 39.8593 35.6377 39.0598C35.4035 38.8224 35.1693 38.582 34.9382 38.3384C34.9101 38.3071 34.4885 38.0667 34.4947 38.0229L34.6571 38.3696L34.7102 38.4258C35.3442 39.116 35.9875 39.7937 36.6464 40.4589C37.1867 41.0054 37.7395 41.5426 38.3016 42.0672C38.539 42.289 38.7795 42.5045 39.0231 42.7199C40.0786 43.6537 41.1842 44.6687 42.4771 45.2589C42.7956 45.4057 43.1267 45.5431 43.4733 45.6056C43.8762 45.6806 44.2353 45.7274 44.6382 45.6306C44.657 45.6275 44.6726 45.6243 44.6913 45.6212C45.191 45.5057 45.4752 45.2027 45.4752 45.2027C45.3378 45.3401 45.0848 45.3776 44.9037 45.4151C44.8443 45.4276 44.7819 45.437 44.7225 45.4432L44.7194 45.4463Z" fill="#232323"/>
<path d="M18.0582 31.2291L18.1238 41.0166L18.1456 44.4737L17.2243 44.48C16.2843 44.4862 15.5192 45.2607 15.5254 46.2039V46.2945C15.5317 47.2345 16.3062 47.9996 17.2493 47.9934L19.9695 47.9746C20.9095 47.9684 21.6746 47.1939 21.6684 46.2507L21.659 44.9797C21.659 44.9641 21.659 44.9484 21.659 44.9328L21.6309 40.9947L21.6247 39.9329L21.5653 31.2041L18.0519 31.2291H18.0582Z" fill="#333333"/>
<path d="M25.6534 31.2291L25.719 41.0166L25.7408 44.4737L24.8196 44.48C23.8795 44.4862 23.1144 45.2607 23.1206 46.2039V46.2945C23.1269 47.2345 23.9014 47.9996 24.8445 47.9934L27.5647 47.9746C28.5047 47.9684 29.2698 47.1939 29.2636 46.2507L29.2542 44.9797C29.2542 44.9641 29.2542 44.9484 29.2542 44.9328L29.2261 40.9947L29.2199 39.9329L29.1605 31.2041L25.6472 31.2291H25.6534Z" fill="#333333"/>
<path d="M38.6046 26.619C36.3623 23.0151 32.9676 19.9514 29.551 17.4562C29.551 17.4562 25.9689 17.1657 25.488 15.167C25.488 15.1732 19.9259 28.9363 14.3982 29.5297C9.31707 30.0762 8.08349 26.0975 7.91797 25.4542C8.39579 27.6184 9.20777 29.6983 10.4601 31.5721C15.9909 39.8418 26.7591 42.4277 35.4629 38.0898C37.1649 37.2404 38.8576 35.7632 39.7726 34.0081C41.0468 31.569 39.9475 28.7708 38.6077 26.6159L38.6046 26.619Z" fill="#F7F2E5"/>
<path d="M29.095 13.8781C28.1393 9.92434 25.3786 4.03435 17.3774 4C17.3774 4 9.75731 4.1499 8.22392 10.9768C7.53374 14.0467 7.32137 17.5195 7.37446 20.6519C7.40257 22.2664 7.57121 23.881 7.91786 25.4519C8.08338 26.0984 9.31385 30.074 14.3981 29.5274C17.5898 29.1839 21.9964 24.0216 25.1506 19.7181C26.328 19.9367 28.3111 20.1272 29.0981 19.209C30.2255 17.8911 29.0981 13.8812 29.0981 13.8812L29.095 13.8781Z" fill="#333333"/>
<path d="M17.2401 15.4145C18.7286 15.4145 19.9352 14.1309 19.9352 12.5476C19.9352 10.9642 18.7286 9.68066 17.2401 9.68066C15.7516 9.68066 14.5449 10.9642 14.5449 12.5476C14.5449 14.1309 15.7516 15.4145 17.2401 15.4145Z" fill="#EFEFEF"/>
<path d="M16.9154 14.3127C17.864 14.3127 18.6331 13.5227 18.6331 12.5482C18.6331 11.5737 17.864 10.7837 16.9154 10.7837C15.9668 10.7837 15.1978 11.5737 15.1978 12.5482C15.1978 13.5227 15.9668 14.3127 16.9154 14.3127Z" fill="#232323"/>
<path d="M3.27711 15.3372C3.27711 15.3372 7.30891 16.9206 9.18271 16.9206C11.0565 16.9206 12.6399 15.8307 12.6836 14.3066C12.7273 12.7826 2.62753 13.5352 3.27711 15.3372Z" fill="#5A5D5B"/>
<path d="M3.27748 15.342C3.27748 15.342 2.38742 14.9953 2.95581 14.3895C3.5242 13.7836 6.88767 10.2952 9.88263 10.4451C12.8745 10.595 12.6777 14.1552 12.6777 14.1552C12.6777 14.1552 13.2711 15.1452 3.27748 15.342Z" fill="#626262"/>
<path d="M41.4281 37.1402C42.6711 38.0646 39.3482 37.921 39.3482 37.921C36.0878 37.6836 32.8711 36.906 29.8667 35.6193C27.4308 34.5762 25.1042 33.174 23.3397 31.2003C21.5752 29.2265 20.4103 26.6282 20.5165 23.983C20.6258 21.2598 22.1842 18.955 24.3609 17.8182C26.0067 16.9594 28.0054 16.7689 30.001 17.5684C31.1034 18.0087 32.0247 18.7988 32.8929 19.6077C34.6668 21.2598 36.3126 23.0461 37.8148 24.948C39.6417 27.2653 41.2376 29.7824 42.3338 32.5244C42.3744 32.6244 42.4118 32.7243 42.4524 32.8274C42.5087 32.9741 42.5618 33.1209 42.6117 33.2677C42.6523 33.3864 42.6898 33.5051 42.7241 33.6269C42.7491 33.7205 42.7741 33.8174 42.796 33.9142C42.8116 33.986 42.8241 34.0609 42.8335 34.1359C42.8397 34.189 42.8428 34.2452 42.8428 34.2983C42.8428 34.3358 42.8397 34.3764 42.8335 34.4138C42.8272 34.4388 42.821 34.4669 42.8085 34.4888C42.7679 34.5638 42.6679 34.5887 42.5899 34.5856C42.568 34.5856 42.5461 34.5825 42.5243 34.57C42.4899 34.5513 42.4743 34.5138 42.4681 34.4763C42.4618 34.4388 42.4681 34.4014 42.4681 34.3608C42.4774 34.3795 42.4899 34.3951 42.4993 34.4138C42.5586 34.5013 42.6305 34.5794 42.7023 34.6574C42.7897 34.7511 42.8803 34.8417 42.9709 34.926C43.1551 35.0978 43.3487 35.2571 43.5455 35.4132C43.7422 35.5694 43.9327 35.7193 44.1233 35.8785C44.2201 35.9597 44.3169 36.0409 44.4043 36.1284C44.4231 36.1471 44.4387 36.1627 44.4574 36.1815C44.8134 36.5968 44.1576 36.931 43.8453 37.0622C43.2613 37.3057 42.0964 37.1496 41.4625 37.1246L41.4406 37.1371L41.4281 37.1402Z" fill="#465669"/>
<path d="M36.5373 33.207C36.6716 33.3569 42.0432 38.3444 44.2699 36.8328C44.1012 36.9671 43.9326 37.1077 43.7389 37.2045C43.5328 37.3044 43.3017 37.3575 43.0738 37.3887C42.4648 37.4762 41.8277 37.2919 41.2593 37.0796C40.2443 36.6985 39.3574 36.127 38.5641 35.3838C37.927 34.781 37.3305 34.1408 36.7622 33.4756C36.6841 33.385 36.6091 33.2976 36.5342 33.207H36.5373Z" fill="#364357"/>
<path d="M39.2324 32.1665C40.4004 33.5406 41.9807 34.5618 42.3804 34.6087C42.7802 34.6555 42.8208 34.4307 42.8208 34.4307C42.8208 34.4307 42.9082 34.9803 40.2287 32.941" fill="#364357"/>
</g>
<defs>
<clipPath id="clip0_2_462">
<rect width="43.1131" height="44" fill="white" transform="translate(2.76514 4)"/>
</clipPath>
</defs>
</svg>
