<svg width="103" height="103" viewBox="0 0 103 103" fill="none" xmlns="http://www.w3.org/2000/svg">
<g clip-path="url(#clip0_287_5325)">
<path d="M45.8009 76.4005C43.0183 78.4701 50.4574 78.1484 50.4574 78.1484C57.7566 77.6171 64.9579 75.8762 71.6839 72.9956C77.1373 70.6604 82.3461 67.5212 86.2963 63.1025C90.2466 58.6838 92.8545 52.8668 92.6167 46.9449C92.372 40.8482 88.8832 35.6884 84.0101 33.1434C80.3255 31.2208 75.8509 30.7943 71.3832 32.5841C68.9152 33.5699 66.8527 35.3388 64.909 37.1496C60.9378 40.8482 57.2532 44.8474 53.8902 49.1053C49.8001 54.2931 46.2274 59.9283 43.7734 66.0669C43.6825 66.2907 43.5986 66.5144 43.5077 66.7451C43.3818 67.0737 43.263 67.4023 43.1511 67.7309C43.0602 67.9966 42.9763 68.2623 42.8994 68.535C42.8435 68.7447 42.7876 68.9615 42.7386 69.1782C42.7037 69.339 42.6757 69.5068 42.6547 69.6746C42.6407 69.7935 42.6337 69.9193 42.6337 70.0382C42.6337 70.1221 42.6407 70.213 42.6547 70.2969C42.6687 70.3528 42.6827 70.4157 42.7106 70.4647C42.8015 70.6325 43.0253 70.6884 43.2001 70.6814C43.249 70.6814 43.2979 70.6744 43.3469 70.6464C43.4238 70.6045 43.4587 70.5206 43.4727 70.4367C43.4867 70.3528 43.4727 70.2689 43.4727 70.178C43.4518 70.22 43.4238 70.2549 43.4028 70.2969C43.27 70.4926 43.1092 70.6674 42.9484 70.8422C42.7526 71.052 42.5498 71.2547 42.3471 71.4435C41.9346 71.828 41.5011 72.1846 41.0606 72.5342C40.6202 72.8837 40.1937 73.2194 39.7672 73.5759C39.5504 73.7577 39.3337 73.9395 39.1379 74.1352C39.096 74.1772 39.061 74.2122 39.0191 74.2541C38.222 75.184 39.6903 75.9321 40.3894 76.2257C41.6969 76.7711 44.3047 76.4215 45.724 76.3656L45.773 76.3935L45.8009 76.4005Z" fill="#465669"/>
<path d="M43.2002 65.5968C40.4036 68.4773 37.551 71.3089 34.6774 74.1126C29.3638 79.3003 23.9733 84.4322 18.2472 89.1655C16.1637 90.8854 14.1431 92.7452 11.759 94.0526C10.1509 94.9266 8.15129 95.6187 6.27054 95.4649C3.8025 95.2622 2.20142 93.2696 3.29211 90.8435C4.19403 88.8439 5.85104 87.3267 7.55 85.9983C9.60553 84.3832 11.6611 82.7682 13.7166 81.1461C22.4911 74.2244 31.2236 67.2608 39.9212 60.2552C39.9561 60.2272 40.5364 59.7937 40.5224 59.7658L43.2002 65.6038V65.5968Z" fill="#333333"/>
<path d="M33.454 74.58C36.3276 71.7764 39.1802 68.9448 41.9768 66.0642C41.9768 66.0642 41.6202 65.2881 41.4594 64.9386C42.3404 64.1136 43.2213 63.2885 44.1022 62.4635C44.1022 62.4635 44.1582 62.4146 44.1582 62.4076L47.2624 68.0289C45.99 69.553 44.7035 71.0562 43.4101 72.5524C40.4456 75.9923 37.4323 79.3972 34.3699 82.7532C29.6436 87.927 24.8264 93.2616 19.345 97.6523C18.1494 98.6102 16.821 99.7008 15.3318 100.162C14.4648 100.428 13.514 100.589 12.612 100.561C11.9688 100.54 11.3116 100.386 10.7802 100.015C10.2069 99.61 9.82938 98.9597 9.66157 98.2746C9.37492 97.1 9.61264 95.7925 10.137 94.7158C12.675 93.4224 14.9752 91.3249 17.0237 89.6259C22.7499 84.8926 28.1404 79.7608 33.454 74.573V74.58Z" fill="#333333"/>
<path d="M5.5367 94.9958C6.18692 95.0587 6.85811 94.9748 7.50134 94.8489C8.24944 94.7091 8.98357 94.4784 9.66874 94.1428C10.8014 93.5974 12.3186 92.6536 13.3323 91.9265C15.9752 90.0247 18.0167 88.095 20.4148 85.9207C22.2816 84.2287 24.0994 82.4878 25.8683 80.6979C26.3927 80.1666 26.917 79.6282 27.4344 79.0829C27.4973 79.0129 28.4412 78.4746 28.4272 78.3767L28.0637 79.1528L27.9448 79.2786C26.5255 80.8238 25.0852 82.3409 23.61 83.8302C22.4005 85.0537 21.1629 86.2562 19.9045 87.4308C19.3731 87.9272 18.8347 88.4097 18.2894 88.8921C15.9262 90.9826 13.4512 93.2549 10.5567 94.5763C9.84353 94.9049 9.10241 95.2125 8.32635 95.3523C7.42443 95.5201 6.6204 95.625 5.71848 95.4083C5.67653 95.4013 5.64157 95.3943 5.59962 95.3873C4.48097 95.1286 3.84473 94.4504 3.84473 94.4504C4.15236 94.758 4.71868 94.8419 5.1242 94.9258C5.25704 94.9538 5.39686 94.9748 5.5297 94.9888L5.5367 94.9958Z" fill="#232323"/>
<path d="M65.2238 63.1784L65.0769 85.0901L65.028 92.8298L67.0905 92.8438C69.195 92.8578 70.9079 94.5917 70.894 96.7032V96.9059C70.88 99.0104 69.1461 100.723 67.0346 100.709L60.9449 100.667C58.8404 100.653 57.1275 98.9195 57.1415 96.808L57.1624 93.9625C57.1624 93.9275 57.1624 93.8925 57.1624 93.8576L57.2254 85.0412L57.2393 82.664L57.3722 63.1225L65.2377 63.1784H65.2238Z" fill="#333333"/>
<path d="M48.2201 63.1784L48.0733 85.0901L48.0243 92.8298L50.0868 92.8438C52.1913 92.8578 53.9043 94.5917 53.8903 96.7032V96.9059C53.8763 99.0104 52.1424 100.723 50.0309 100.709L43.9412 100.667C41.8367 100.653 40.1238 98.9195 40.1378 96.808L40.1587 93.9625C40.1587 93.9275 40.1587 93.8925 40.1587 93.8576L40.2217 85.0412L40.2357 82.664L40.3685 63.1225L48.2341 63.1784H48.2201Z" fill="#333333"/>
<path d="M19.2262 52.835C24.2462 44.7667 31.8461 37.9079 39.4949 32.3216C39.4949 32.3216 47.5142 31.6714 48.591 27.1967C48.591 27.2107 61.043 58.0228 73.4182 59.3512C84.7935 60.5747 87.5552 51.6674 87.9257 50.2271C86.856 55.0723 85.0382 59.7287 82.2346 63.9237C69.8524 82.4375 45.7454 88.2265 26.2598 78.5152C22.4493 76.6134 18.6599 73.3064 16.6113 69.3771C13.7588 63.9167 16.2198 57.6522 19.2192 52.828L19.2262 52.835Z" fill="#F7F2E5"/>
<path d="M40.5154 24.3217C42.6548 15.4704 48.8354 2.28419 66.7479 2.20728C66.7479 2.20728 83.8074 2.54288 87.2403 17.8265C88.7854 24.6993 89.2609 32.474 89.142 39.4865C89.0791 43.1012 88.7015 46.7159 87.9255 50.2326C87.5549 51.6799 84.8002 60.5802 73.4179 59.3567C66.2724 58.5876 56.4073 47.0305 49.3458 37.3961C46.7099 37.8855 42.2703 38.312 40.5084 36.2564C37.9844 33.306 40.5084 24.3287 40.5084 24.3287L40.5154 24.3217Z" fill="#333333"/>
<path d="M67.0559 27.7619C63.7236 27.7619 61.0222 24.8883 61.0222 21.3436C61.0222 17.7988 63.7236 14.9253 67.0559 14.9253C70.3883 14.9253 73.0897 17.7988 73.0897 21.3436C73.0897 24.8883 70.3883 27.7619 67.0559 27.7619Z" fill="#EFEFEF"/>
<path d="M67.7829 25.2949C65.6592 25.2949 63.9375 23.5263 63.9375 21.3446C63.9375 19.1629 65.6592 17.3943 67.7829 17.3943C69.9067 17.3943 71.6283 19.1629 71.6283 21.3446C71.6283 23.5263 69.9067 25.2949 67.7829 25.2949Z" fill="#232323"/>
<path d="M98.3151 27.6004C98.3151 27.6004 89.2889 31.1451 85.094 31.1451C80.899 31.1451 77.3543 28.7051 77.2564 25.2932C77.1585 21.8812 99.7694 23.5662 98.3151 27.6004Z" fill="#5A5D5B"/>
<path d="M98.3153 27.6025C98.3153 27.6025 100.308 26.8264 99.0354 25.47C97.7629 24.1137 90.233 16.304 83.528 16.6396C76.8301 16.9752 77.2705 24.9457 77.2705 24.9457C77.2705 24.9457 75.9421 27.162 98.3153 27.6025Z" fill="#626262"/>
<path d="M12.9057 76.4005C10.1231 78.4701 17.5621 78.1484 17.5621 78.1484C24.8614 77.6171 32.0627 75.8762 38.7887 72.9956C44.2421 70.6604 49.4509 67.5212 53.4011 63.1025C57.3514 58.6838 59.9592 52.8668 59.7215 46.9449C59.4768 40.8482 55.988 35.6884 51.1149 33.1434C47.4303 31.2208 42.9557 30.7943 38.488 32.5841C36.02 33.5699 33.9575 35.3388 32.0138 37.1496C28.0426 40.8482 24.358 44.8474 20.995 49.1053C16.9049 54.2931 13.3322 59.9283 10.8782 66.0669C10.7873 66.2907 10.7034 66.5144 10.6125 66.7451C10.4866 67.0737 10.3678 67.4023 10.2559 67.7309C10.165 67.9966 10.0811 68.2623 10.0042 68.535C9.94827 68.7447 9.89234 68.9615 9.8434 69.1782C9.80844 69.339 9.78047 69.5068 9.75949 69.6746C9.74551 69.7935 9.73852 69.9193 9.73852 70.0382C9.73852 70.1221 9.74551 70.213 9.75949 70.2969C9.77348 70.3528 9.78746 70.4157 9.81543 70.4647C9.90632 70.6325 10.1301 70.6884 10.3048 70.6814C10.3538 70.6814 10.4027 70.6744 10.4517 70.6464C10.5286 70.6045 10.5635 70.5206 10.5775 70.4367C10.5915 70.3528 10.5775 70.2689 10.5775 70.178C10.5565 70.22 10.5286 70.2549 10.5076 70.2969C10.3748 70.4926 10.2139 70.6674 10.0531 70.8422C9.85738 71.052 9.65462 71.2547 9.45186 71.4435C9.03935 71.828 8.60588 72.1846 8.16541 72.5342C7.72494 72.8837 7.29845 73.2194 6.87197 73.5759C6.65523 73.7577 6.43848 73.9395 6.24271 74.1352C6.20077 74.1772 6.16581 74.2122 6.12386 74.2541C5.32682 75.184 6.79506 75.9321 7.49422 76.2257C8.80165 76.7711 11.4095 76.4215 12.8288 76.3656L12.8778 76.3935L12.9057 76.4005Z" fill="#465669"/>
<path d="M23.8545 67.5853C23.5539 67.9208 11.5283 79.0865 6.54328 75.7025C6.92083 76.0031 7.29837 76.3178 7.73185 76.5345C8.1933 76.7582 8.71067 76.8771 9.22106 76.947C10.5844 77.1428 12.0107 76.7303 13.2832 76.2548C15.5555 75.4019 17.5411 74.1224 19.3169 72.4584C20.7432 71.109 22.0786 69.6757 23.3511 68.1865C23.5259 67.9838 23.6937 67.788 23.8615 67.5853H23.8545Z" fill="#364357"/>
<path d="M17.821 65.2675C15.2061 68.3438 11.6683 70.63 10.7734 70.7349C9.87848 70.8398 9.78759 70.3364 9.78759 70.3364C9.78759 70.3364 9.59182 71.5669 15.5906 67.0014" fill="#364357"/>
</g>
<defs>
<clipPath id="clip0_287_5325">
<rect width="96.3853" height="98.3682" fill="white" transform="matrix(-1.00139 0 0 1.00139 99.4619 2.20716)"/>
</clipPath>
</defs>
</svg>
