<svg width="140" height="48" viewBox="0 0 140 48" fill="none" xmlns="http://www.w3.org/2000/svg">
<path d="M118.839 31.1319C118.45 30.248 118.026 29.258 117.566 28.1619C117.142 27.0659 116.682 25.8107 116.187 24.3964C115.727 22.9821 115.232 21.3734 114.702 19.5702C114.207 17.7316 113.677 15.6279 113.111 13.2589C113.606 12.7639 114.26 12.3396 115.073 11.9861C115.922 11.5971 116.841 11.4027 117.831 11.4027C119.069 11.4027 120.094 11.6679 120.907 12.1982C121.72 12.6932 122.321 13.6479 122.71 15.0621L126.9 29.6469H127.112C127.537 28.4448 127.943 27.1366 128.332 25.7223C128.756 24.308 129.163 22.8584 129.552 21.3734C129.941 19.853 130.294 18.3504 130.613 16.8654C130.966 15.345 131.267 13.86 131.514 12.4104C132.787 11.7386 134.184 11.4027 135.704 11.4027C136.942 11.4027 137.967 11.6679 138.78 12.1982C139.593 12.7286 140 13.6479 140 14.9561C140 15.9107 139.876 17.0245 139.629 18.2973C139.381 19.5348 139.045 20.8607 138.621 22.275C138.232 23.6893 137.755 25.1566 137.189 26.6769C136.659 28.1619 136.093 29.6293 135.492 31.0789C134.891 32.5285 134.272 33.9075 133.636 35.2157C132.999 36.4885 132.381 37.6376 131.779 38.663C130.789 40.3955 129.87 41.8098 129.022 42.9059C128.173 44.0019 127.36 44.8505 126.582 45.4516C125.804 46.088 125.026 46.5123 124.248 46.7244C123.471 46.9719 122.657 47.0957 121.809 47.0957C120.324 47.0957 119.122 46.6537 118.202 45.7698C117.283 44.8859 116.735 43.7367 116.558 42.3225C117.69 41.4385 118.821 40.4485 119.953 39.3525C121.084 38.2918 122.109 37.1957 123.029 36.0643C122.428 35.8875 121.773 35.4809 121.066 34.8444C120.395 34.1727 119.652 32.9352 118.839 31.1319Z" fill="#333333"/>
<path d="M109.119 37.6553C108.73 37.726 108.146 37.8144 107.369 37.9205C106.626 38.0619 105.866 38.1327 105.088 38.1327C104.31 38.1327 103.603 38.0796 102.967 37.9735C102.366 37.8675 101.853 37.6553 101.429 37.3371C101.004 37.0189 100.668 36.5946 100.421 36.0643C100.209 35.4985 100.103 34.7737 100.103 33.8898V3.12913C100.492 3.05841 101.057 2.97002 101.8 2.86395C102.578 2.72252 103.356 2.65181 104.133 2.65181C104.911 2.65181 105.601 2.70484 106.202 2.81091C106.838 2.91698 107.369 3.12913 107.793 3.44734C108.217 3.76556 108.535 4.20752 108.748 4.77323C108.995 5.30359 109.119 6.01073 109.119 6.89466V37.6553Z" fill="#333333"/>
<path d="M95.7173 33.0412C95.5405 34.703 95.0455 35.9759 94.2323 36.8598C93.4545 37.7437 92.3054 38.1857 90.785 38.1857C89.6536 38.1857 88.6459 37.9205 87.762 37.3902C86.878 36.8244 85.9234 35.8875 84.8981 34.5793L79.6475 28.0028V37.6553C79.2586 37.726 78.6752 37.8144 77.8973 37.9205C77.1548 38.0619 76.3947 38.1327 75.6168 38.1327C74.839 38.1327 74.1318 38.0796 73.4954 37.9735C72.8943 37.8675 72.3816 37.6553 71.9573 37.3371C71.5331 37.0189 71.1972 36.5946 70.9497 36.0643C70.7375 35.4985 70.6315 34.7737 70.6315 33.8898V3.18216C71.0204 3.07609 71.5861 2.97002 72.3286 2.86395C73.1065 2.72252 73.8843 2.65181 74.6622 2.65181C75.44 2.65181 76.1295 2.70484 76.7306 2.81091C77.367 2.91698 77.8973 3.12913 78.3216 3.44734C78.7459 3.76556 79.0641 4.20752 79.2763 4.77323C79.5238 5.30359 79.6475 6.01073 79.6475 6.89466V20.8961L88.7696 11.5618C90.6082 11.5618 92.0755 11.9684 93.1716 12.7816C94.303 13.5948 94.8687 14.6202 94.8687 15.8577C94.8687 16.388 94.7804 16.883 94.6036 17.3427C94.4268 17.767 94.1439 18.2089 93.755 18.6686C93.4014 19.1282 92.9241 19.6232 92.323 20.1536C91.7573 20.6486 91.0855 21.232 90.3077 21.9037L87.2316 24.5555L95.7173 33.0412Z" fill="#333333"/>
<path d="M59.1091 18.2443C58.2251 18.2443 57.3766 18.3857 56.5633 18.6686C55.7855 18.9514 55.096 19.3757 54.495 19.9414C53.9292 20.4718 53.4696 21.1435 53.116 21.9568C52.7625 22.77 52.5857 23.7246 52.5857 24.8207C52.5857 27.0128 53.2044 28.6569 54.4419 29.753C55.7148 30.8491 57.2528 31.3971 59.056 31.3971C60.1167 31.3971 61.036 31.2734 61.8139 31.0259C62.5917 30.7784 63.2812 30.5132 63.8823 30.2303C64.5894 30.7253 65.1198 31.2734 65.4733 31.8744C65.8269 32.4401 66.0037 33.1296 66.0037 33.9428C66.0037 35.3925 65.3142 36.5239 63.9353 37.3371C62.5564 38.115 60.6471 38.5039 58.2074 38.5039C55.98 38.5039 53.9646 38.1857 52.1614 37.5492C50.3582 36.8775 48.8025 35.9582 47.4943 34.7914C46.2214 33.5892 45.2314 32.1573 44.5243 30.4955C43.8171 28.8337 43.4635 26.9951 43.4635 24.9798C43.4635 22.6462 43.8348 20.6132 44.5773 18.8807C45.3551 17.1128 46.3982 15.6632 47.7064 14.5318C49.0146 13.4003 50.5173 12.5518 52.2144 11.9861C53.9469 11.4203 55.7678 11.1375 57.6771 11.1375C60.2228 11.1375 62.1851 11.5971 63.5641 12.5164C64.943 13.4357 65.6324 14.6202 65.6324 16.0698C65.6324 16.7416 65.4733 17.378 65.1551 17.9791C64.8369 18.5448 64.4657 19.0398 64.0414 19.4641C63.4403 19.1812 62.7155 18.9161 61.8669 18.6686C61.0183 18.3857 60.0991 18.2443 59.1091 18.2443Z" fill="#333333"/>
<path d="M29.3971 4.77321C29.3971 3.42964 29.839 2.29821 30.723 1.37892C31.6423 0.45964 32.8444 0 34.3294 0C35.8144 0 36.9989 0.45964 37.8828 1.37892C38.8021 2.29821 39.2617 3.42964 39.2617 4.77321C39.2617 6.11678 38.8021 7.2482 37.8828 8.16749C36.9989 9.08677 35.8144 9.54641 34.3294 9.54641C32.8444 9.54641 31.6423 9.08677 30.723 8.16749C29.839 7.2482 29.3971 6.11678 29.3971 4.77321ZM38.8374 37.6553C38.4485 37.726 37.8651 37.8144 37.0873 37.9205C36.3448 38.0619 35.5846 38.1326 34.8067 38.1326C34.0289 38.1326 33.3217 38.0796 32.6853 37.9735C32.0842 37.8674 31.5715 37.6553 31.1473 37.3371C30.723 37.0189 30.3871 36.5946 30.1396 36.0642C29.9274 35.4985 29.8214 34.7737 29.8214 33.8898V12.3043C30.2103 12.2336 30.776 12.1452 31.5185 12.0391C32.2964 11.8977 33.0742 11.8269 33.8521 11.8269C34.6299 11.8269 35.3194 11.88 35.9205 11.9861C36.5569 12.0921 37.0873 12.3043 37.5115 12.6225C37.9358 12.9407 38.254 13.3827 38.4662 13.9484C38.7137 14.4787 38.8374 15.1859 38.8374 16.0698V37.6553Z" fill="#333333"/>
<path d="M12.0391 20.4718C13.5241 20.4718 14.6555 20.1359 15.4334 19.4641C16.2466 18.7569 16.6532 17.6962 16.6532 16.2819C16.6532 14.9384 16.2289 13.913 15.3803 13.2059C14.5671 12.4634 13.365 12.0921 11.7739 12.0921C11.2082 12.0921 10.7309 12.1098 10.342 12.1452C9.98838 12.1452 9.61713 12.1805 9.2282 12.2512V20.4718H12.0391ZM9.28124 37.4962C8.89231 37.6023 8.27356 37.7083 7.42499 37.8144C6.61178 37.9205 5.79856 37.9735 4.98535 37.9735C4.17214 37.9735 3.44732 37.9028 2.81089 37.7614C2.20982 37.6553 1.69714 37.4432 1.27286 37.125C0.84857 36.8067 0.530356 36.3648 0.318214 35.7991C0.106071 35.2333 0 34.4908 0 33.5716V8.59177C0 7.84927 0.194464 7.28356 0.583392 6.89463C1.00768 6.47035 1.57339 6.13446 2.28053 5.88696C3.48267 5.46267 4.84392 5.16214 6.36428 4.98535C7.91999 4.77321 9.4757 4.66714 11.0314 4.66714C15.9107 4.66714 19.6409 5.71017 22.2219 7.79624C24.803 9.88231 26.0935 12.7109 26.0935 16.2819C26.0935 18.0144 25.8107 19.5878 25.245 21.0021C24.7146 22.381 23.9014 23.5832 22.8053 24.6085C21.7446 25.5985 20.3834 26.3764 18.7216 26.9421C17.0952 27.4725 15.2036 27.7376 13.0468 27.7376H9.28124V37.4962Z" fill="#333333"/>
</svg>
