<svg width="32" height="32" viewBox="0 0 32 32" fill="none" xmlns="http://www.w3.org/2000/svg">
<g clip-path="url(#clip0_473_7310)">
<path d="M22.7051 26.376C22.8956 26.3793 23.0872 26.3857 23.2793 26.3965C23.4968 26.4086 23.7133 26.4261 23.9277 26.4473L25.1045 26.5615C25.1055 26.5657 25.1074 26.5732 25.1074 26.5732C26.1752 26.7024 33.9297 28.1217 33.9297 42.2217H-1.34766C-1.34766 27.0789 7.59863 26.5615 7.59863 26.5615L8.77441 26.4473C8.98895 26.4261 9.20627 26.4086 9.42383 26.3965C9.57084 26.3886 9.71772 26.3837 9.86426 26.3799L16.291 24.6895L22.7051 26.376Z" fill="#FCE3CD"/>
<g clip-path="url(#clip1_473_7310)">
<path d="M28.7 15.58C28.66 11.9 27.05 8.61 24.52 6.31C22.26 4.26 19.28 3 16 3C12.72 3 9.70998 4.27 7.44998 6.33C4.91998 8.64 3.31998 11.94 3.28998 15.62V15.72C3.28998 22.74 8.97998 28.43 16 28.43C23.02 28.43 28.71 22.74 28.71 15.72V15.58H28.7Z" fill="#FCE3CD"/>
<path d="M6.09 17.96C5.6 18.82 4.74 19.39 3.77 19.39C2.24 19.39 1 17.99 1 16.27C1 14.55 2.24 13.15 3.77 13.15C4.69 13.15 5.5 13.65 6 14.43" fill="#FCE3CD"/>
<path d="M26.43 18.64C26.91 19.11 27.54 19.39 28.23 19.39C29.76 19.39 31 17.99 31 16.27C31 14.55 29.76 13.15 28.23 13.15C27.26 13.15 26.4 13.72 25.91 14.58" fill="#FCE3CD"/>
<path d="M12.5 18C13.13 18 13.63 17.49 13.63 16.87C13.63 16.25 13.12 15.74 12.5 15.74C11.88 15.74 11.37 16.25 11.37 16.87C11.37 17.49 11.88 18 12.5 18Z" fill="#303030"/>
<path d="M19.5 18C20.13 18 20.63 17.49 20.63 16.87C20.63 16.25 20.12 15.74 19.5 15.74C18.88 15.74 18.37 16.25 18.37 16.87C18.37 17.49 18.88 18 19.5 18Z" fill="#303030"/>
<path d="M18.4331 19.5012C18.0754 19.4058 17.7295 19.4177 17.4076 19.4893C16.4059 19.7277 15.3327 19.7277 14.3311 19.4893C14.0091 19.4177 13.6633 19.4177 13.3056 19.5012C12.5901 19.68 12.0058 20.2643 11.815 20.9679C11.4454 22.375 12.4947 23.639 13.8422 23.639C13.9614 23.639 14.0807 23.639 14.1999 23.6032C15.3089 23.4124 16.4179 23.4124 17.5388 23.6032C17.658 23.627 17.7772 23.639 17.8965 23.639C19.2439 23.639 20.2933 22.375 19.9236 20.9679C19.7328 20.2524 19.1486 19.68 18.4331 19.5012Z" fill="#5C9EFF"/>
<path d="M15.8577 25.9998C17.1749 25.9998 18.2426 24.932 18.2426 23.6149C18.2426 22.2978 17.1749 21.23 15.8577 21.23C14.5406 21.23 13.4728 22.2978 13.4728 23.6149C13.4728 24.932 14.5406 25.9998 15.8577 25.9998Z" stroke="white" stroke-width="0.953955" stroke-miterlimit="10"/>
<path d="M15.8574 22.7682C16.5358 22.7682 17.0856 22.2183 17.0856 21.54C17.0856 20.8617 16.5358 20.3118 15.8574 20.3118C15.1791 20.3118 14.6292 20.8617 14.6292 21.54C14.6292 22.2183 15.1791 22.7682 15.8574 22.7682Z" fill="#8AC5FF"/>
<path d="M12.9244 22.053C13.2076 22.053 13.4371 21.8234 13.4371 21.5402C13.4371 21.257 13.2076 21.0275 12.9244 21.0275C12.6412 21.0275 12.4116 21.257 12.4116 21.5402C12.4116 21.8234 12.6412 22.053 12.9244 22.053Z" fill="#217FBF"/>
<path d="M18.7911 22.053C19.0743 22.053 19.3039 21.8234 19.3039 21.5402C19.3039 21.257 19.0743 21.0275 18.7911 21.0275C18.5079 21.0275 18.2784 21.257 18.2784 21.5402C18.2784 21.8234 18.5079 22.053 18.7911 22.053Z" fill="#217FBF"/>
<path d="M15.29 6.66C15.04 7.76 14.23 11.04 13.13 12.08C13.08 12.13 13.13 12.2 13.19 12.18C13.8 11.93 14.89 11.18 15.31 10.26C15.94 8.91 15.82 7.55 15.52 6.65C15.48 6.54 15.32 6.55 15.29 6.66Z" fill="#303030"/>
<path d="M18.42 6.66C18.17 7.76 17.35 11.04 16.24 12.08C16.19 12.13 16.24 12.2 16.3 12.18C16.92 11.93 18.01 11.18 18.44 10.26C19.07 8.91 18.96 7.55 18.66 6.65C18.62 6.54 18.45 6.55 18.43 6.66H18.42Z" fill="#303030"/>
</g>
</g>
<defs>
<clipPath id="clip0_473_7310">
<rect width="32" height="32" fill="white"/>
</clipPath>
<clipPath id="clip1_473_7310">
<rect width="32" height="25.43" fill="white" transform="translate(0 3)"/>
</clipPath>
</defs>
</svg>
