<svg width="32" height="32" viewBox="0 0 32 32" fill="none" xmlns="http://www.w3.org/2000/svg">
<g clip-path="url(#clip0_473_7634)">
<g clip-path="url(#clip1_473_7634)">
<path d="M23.4468 8.07415L16.0692 7.18538V7.15918L15.9633 7.17179L15.8573 7.15918V7.18538L3.46289 8.07415C3.46289 8.07415 1.35164 12.388 -0.0371094 34.1592H31.9629C30.5741 12.388 28.4629 8.07512 28.4629 8.07512L23.4468 8.07415Z" fill="#EFEFEF"/>
<path d="M16.1072 28.886V26.6073L10.3028 26.6911C9.95264 26.6871 9.59947 26.6941 9.2453 26.7131C9.0298 26.725 8.8153 26.742 8.6028 26.7629L7.43753 26.8757C6.87385 28.9528 6.43687 30.9571 6.13757 32.4556C9.02082 32.9624 12.4408 33.2557 16.1082 33.2557V28.887L16.1072 28.886Z" fill="#FFD5C5"/>
<path d="M23.6111 26.7629C23.3986 26.742 23.1841 26.725 22.9686 26.7131C22.6134 26.6931 22.2612 26.6871 21.911 26.6911L16.1066 26.6073V33.2547C19.774 33.2547 23.194 32.9614 26.0773 32.4546C25.778 30.9561 25.341 28.9528 24.7773 26.8747L23.6121 26.7619L23.6111 26.7629Z" fill="#FFD5C5"/>
<path d="M5.86971 33.8534C6.01138 33.0822 6.73668 32.5624 7.51286 32.6741C10.0848 33.0453 13.008 33.2548 16.1087 33.2548V42.3874H33.521C33.521 28.4201 25.839 27.0144 24.7824 26.8867C24.7814 26.8827 24.7804 26.8787 24.7794 26.8747L23.6142 26.762C23.4017 26.741 23.1872 26.724 22.9717 26.7121C22.6165 26.6921 22.2643 26.6861 21.9142 26.6901L16.1097 26.6063L10.3053 26.6901C9.95515 26.6861 9.60197 26.6931 9.2478 26.7121C9.03231 26.724 8.81781 26.741 8.60531 26.762L7.44003 26.8747C7.44003 26.8747 -1.42023 27.3885 -1.42023 42.3874H5.00074C5.09552 39.9182 5.318 37.4539 5.67018 35.0057C5.67018 35.0057 5.73901 34.5777 5.8717 33.8534H5.86971Z" fill="#FFD5C5"/>
<path d="M20.2584 27.2366L16.0494 27.8337C16.0206 27.838 15.991 27.838 15.9622 27.8337L11.7532 27.2366C11.5558 27.2086 11.3839 27.3704 11.405 27.5652C11.5092 28.5308 12.1521 31 16.0054 31C19.8586 31 20.5015 28.53 20.6057 27.5652C20.6269 27.3704 20.4558 27.2086 20.2576 27.2366H20.2584Z" stroke="white" stroke-width="0.91905" stroke-miterlimit="10" stroke-linecap="round"/>
<path d="M16.0065 29.1639C22.5226 29.1639 27.8049 23.8816 27.8049 17.3655C27.8049 10.8495 22.5226 5.56717 16.0065 5.56717C9.49045 5.56717 4.20813 10.8495 4.20813 17.3655C4.20813 23.8816 9.49045 29.1639 16.0065 29.1639Z" fill="#FFD5C5"/>
<path d="M4.68701 15.7624L5.60387 16.8269" stroke="#221F1F" stroke-width="0.420017" stroke-linecap="round" stroke-linejoin="round"/>
<path d="M12.7358 19.5226C13.3214 19.5226 13.7973 19.0477 13.7973 18.4611C13.7973 17.8744 13.3224 17.3995 12.7358 17.3995C12.1491 17.3995 11.6743 17.8744 11.6743 18.4611C11.6743 19.0477 12.1491 19.5226 12.7358 19.5226Z" fill="#303030"/>
<path d="M19.2756 19.5227C19.8612 19.5227 20.3371 19.0478 20.3371 18.4612C20.3371 17.8745 19.8622 17.3997 19.2756 17.3997C18.6889 17.3997 18.2141 17.8745 18.2141 18.4612C18.2141 19.0478 18.6889 19.5227 19.2756 19.5227Z" fill="#303030"/>
<path d="M16.0048 23.4471C15.0122 23.4471 14.0195 23.069 13.2643 22.3138C13.0508 22.0993 13.0508 21.7531 13.2643 21.5386C13.4778 21.3251 13.8249 21.3251 14.0394 21.5386C15.1239 22.6231 16.8878 22.6231 17.9722 21.5386C18.1867 21.3251 18.5329 21.3251 18.7474 21.5386C18.9609 21.7521 18.9609 22.0993 18.7474 22.3138C17.9922 23.069 16.9985 23.4471 16.0058 23.4471H16.0048Z" fill="#303030" stroke="#303030" stroke-width="0.282339" stroke-miterlimit="10"/>
<path d="M6.42942 18.7895C5.92062 19.6765 5.03569 20.2631 4.03004 20.2631C2.45174 20.2631 1.17273 18.8195 1.17273 17.0376C1.17273 15.2558 2.45174 13.8122 4.03004 13.8122C4.97583 13.8122 5.81387 14.33 6.33365 15.1291" fill="#FFD5C5"/>
<path d="M26.1238 19.4889C26.6236 19.9718 27.2721 20.2631 27.9804 20.2631C29.5587 20.2631 30.8377 18.8195 30.8377 17.0376C30.8377 15.2558 29.5587 13.8122 27.9804 13.8122C26.9748 13.8122 26.0899 14.3988 25.5811 15.2857" fill="#FFD5C5"/>
<path d="M18.2272 4.61478C18.2272 4.61478 14.4152 12.9572 17.913 15.7826C17.913 15.7826 15.0876 15.2449 15.0876 10.6696C15.0876 6.09431 18.2272 4.61478 18.2272 4.61478Z" fill="#303030"/>
<path d="M15.6831 1.00656C2.50696 1.29289 1.25091 12.337 4.03439 16.188C4.03439 16.188 6.43577 16.1152 9.52454 13.9682C11.1268 12.8548 14.4071 10.632 16.0054 8.74045V0.999573C15.8976 1.00157 15.7909 1.00356 15.6841 1.00656H15.6831Z" fill="#303030"/>
<path d="M16.3266 1.00656C29.5038 1.29289 30.7589 12.337 27.9754 16.189C27.9754 16.189 25.574 16.1162 22.4852 13.9692C20.883 12.8558 17.6027 10.633 16.0044 8.74145V0.999573C16.1121 1.00157 16.2189 1.00356 16.3256 1.00656H16.3266Z" fill="#303030"/>
<path d="M16.1082 3.16634C14.489 3.19726 9.85282 3.51552 7.58313 7.55706C7.58313 7.55706 10.7008 4.46829 16.1082 4.46829C21.5155 4.46829 24.6332 7.55706 24.6332 7.55706C22.3635 3.51552 17.7284 3.13541 16.1082 3.16634Z" fill="white"/>
</g>
</g>
<defs>
<clipPath id="clip0_473_7634">
<rect width="32" height="32" fill="white"/>
</clipPath>
<clipPath id="clip1_473_7634">
<rect width="44" height="41.3871" fill="white" transform="translate(-6 1)"/>
</clipPath>
</defs>
</svg>
