<svg width="32" height="32" viewBox="0 0 32 32" fill="none" xmlns="http://www.w3.org/2000/svg">
<g clip-path="url(#clip0_473_7111)">
<g clip-path="url(#clip1_473_7111)">
<path d="M15.7593 29.5053V27.2265L9.9589 27.3153C9.60377 27.3153 9.25851 27.3153 8.90339 27.335C8.68636 27.3449 8.46934 27.3646 8.26218 27.3844L7.09815 27.4929C6.53587 29.5645 6.10182 31.567 5.79602 33.0664C8.6765 33.5695 12.0995 33.8654 15.7593 33.8654V29.4954V29.5053Z" fill="#FFD5C5"/>
<path d="M23.2657 27.3742C23.0487 27.3545 22.8416 27.3348 22.6245 27.3249C22.2694 27.3052 21.9143 27.2953 21.569 27.3052L15.7686 27.2164V33.8652C19.4383 33.8652 22.8514 33.5692 25.7319 33.0661C25.436 31.5667 24.9921 29.5642 24.4298 27.4926L23.2657 27.3841V27.3742Z" fill="#FFD5C5"/>
<path d="M5.52923 34.4671C5.66734 33.6977 6.39732 33.1748 7.16676 33.2932C9.74144 33.6681 12.6614 33.8752 15.7589 33.8752V43H33.1601C33.1601 29.0416 25.4854 27.6309 24.4299 27.5125C24.4299 27.5125 24.4299 27.5125 24.4299 27.5027L23.2659 27.3942C23.0488 27.3744 22.8417 27.3547 22.6247 27.3448C22.2695 27.3251 21.9144 27.3152 21.5692 27.3251L15.7687 27.2363L9.96833 27.3251C9.6132 27.3251 9.26793 27.3251 8.91281 27.3448C8.69579 27.3547 8.47876 27.3744 8.27161 27.3942L7.10758 27.5027C7.10758 27.5027 -1.76074 28.0058 -1.76074 43H4.66114C4.75979 40.5339 4.97681 38.0677 5.33194 35.6213C5.33194 35.6213 5.40099 35.1971 5.52923 34.4671Z" fill="#F9C802"/>
<path d="M15.6503 16.849C12.4147 16.849 9.32706 16.3558 6.95955 15.468C5.65741 14.9747 4.8781 14.4815 4.47365 14.1362H0.09375C0.09375 16.2078 2.19492 18.0525 5.51931 19.3053C8.24195 20.3312 11.7834 20.9527 15.6503 20.9527C19.5172 20.9527 23.0587 20.3312 25.7813 19.3053C29.1057 18.0525 31.2068 16.2078 31.2068 14.1362H26.8269C26.4126 14.4815 25.6333 14.9846 24.3411 15.468C21.9735 16.3558 18.8859 16.849 15.6503 16.849Z" fill="#F9C802"/>
<path d="M15.6605 29.7713C22.171 29.7713 27.4488 24.4935 27.4488 17.983C27.4488 11.4726 22.171 6.19479 15.6605 6.19479C9.15003 6.19479 3.87225 11.4726 3.87225 17.983C3.87225 24.4935 9.15003 29.7713 15.6605 29.7713Z" fill="#FFD5C5"/>
<path d="M4.34668 16.3853L5.26409 17.4506" stroke="#221F1F" stroke-width="0.42418" stroke-linecap="round" stroke-linejoin="round"/>
<path d="M12.3857 20.1435C12.9677 20.1435 13.4511 19.67 13.4511 19.0781C13.4511 18.4862 12.9776 18.0127 12.3857 18.0127C11.7938 18.0127 11.3203 18.4862 11.3203 19.0781C11.3203 19.67 11.7938 20.1435 12.3857 20.1435Z" fill="#303030"/>
<path d="M18.9257 20.1435C19.5077 20.1435 19.9911 19.67 19.9911 19.0781C19.9911 18.4862 19.5176 18.0127 18.9257 18.0127C18.3339 18.0127 17.8604 18.4862 17.8604 19.0781C17.8604 19.67 18.3339 20.1435 18.9257 20.1435Z" fill="#303030"/>
<path d="M15.66 24.0594C14.6637 24.0594 13.6772 23.6846 12.9176 22.925C12.7006 22.708 12.7006 22.3627 12.9176 22.1457C13.1347 21.9287 13.4799 21.9287 13.6871 22.1457C14.7722 23.2308 16.538 23.2308 17.6132 22.1457C17.8302 21.9287 18.1755 21.9287 18.3827 22.1457C18.5997 22.3627 18.5997 22.708 18.3827 22.9151C17.6231 23.6747 16.6366 24.0496 15.6403 24.0496L15.66 24.0594Z" fill="#303030" stroke="#303030" stroke-width="0.286075" stroke-miterlimit="10"/>
<path d="M6.09174 19.4133C5.57878 20.3011 4.70083 20.8831 3.69463 20.8831C2.11629 20.8831 0.84375 19.4429 0.84375 17.6574C0.84375 15.8719 2.12615 14.4316 3.69463 14.4316C4.64164 14.4316 5.48013 14.9545 5.9931 15.7436" fill="#FFD5C5"/>
<path d="M25.7722 20.1139C26.2753 20.5973 26.9165 20.8833 27.6267 20.8833C29.2051 20.8833 30.4776 19.4431 30.4776 17.6576C30.4776 15.8721 29.1952 14.4319 27.6267 14.4319C26.6205 14.4319 25.7327 15.0139 25.2296 15.9017" fill="#FFD5C5"/>
<path d="M15.6503 0.730225C15.6503 0.730225 4.19744 1.1544 4.01001 12.6467C4.01001 12.844 4.08893 13.0314 4.24676 13.1498C4.98661 13.7417 7.70925 11.9661 15.6503 11.9661C23.5913 11.9661 26.2942 13.7417 27.044 13.1498C27.2018 13.0314 27.2906 12.8341 27.2807 12.6369C27.1032 1.1544 15.6503 0.730225 15.6503 0.730225Z" fill="#F7DF57"/>
<path d="M15.6997 0C15.0881 0 14.5652 0.374857 14.4271 0.868089C14.3877 1.00619 14.4962 1.13443 14.6343 1.13443H16.7453C16.8834 1.13443 16.992 1.00619 16.9525 0.868089C16.8144 0.364992 16.3014 0 15.68 0L15.6997 0Z" fill="#F9C802"/>
<path d="M27.2708 15.5762C27.1722 14.6094 26.7381 13.5243 25.4261 12.8437C23.5814 11.8868 24.3016 11.2949 25.0019 11.0088C24.9625 10.9891 24.9428 10.9694 24.9428 10.9694L15.7884 9.00632L15.6503 9.03591L15.5122 9.00632L6.35776 10.9694C6.35776 10.9694 6.32816 10.9891 6.29857 11.0088C6.99896 11.2949 7.71908 11.8868 5.87439 12.8437C4.54266 13.5342 4.11848 14.639 4.01984 15.6156C3.90146 16.3259 3.80281 17.411 4.00997 18.6342C4.00997 18.6342 4.6709 16.247 5.46007 16.0891C7.88678 15.5762 10.1852 15.3591 10.1852 15.3591L11.6452 13.1297L11.3986 15.2408C12.7599 15.1125 15.5122 15.0829 15.5122 15.0829C15.5122 15.0829 15.5615 15.0829 15.6305 15.0829C15.6305 15.0829 15.6404 15.0829 15.6503 15.0829C15.6503 15.0829 15.6601 15.0829 15.67 15.0829C15.739 15.0829 15.7884 15.0829 15.7884 15.0829C15.7884 15.0829 18.5406 15.1027 19.9019 15.2408L19.6553 13.1297L21.1153 15.3591C21.1153 15.3591 23.4137 15.5762 25.8404 16.0891C26.6296 16.247 27.2905 18.6342 27.2905 18.6342C27.4977 17.3814 27.3892 16.2864 27.2708 15.5762Z" fill="#303030"/>
<path d="M15.6503 11.4138C18.8859 11.4138 21.9735 11.907 24.3411 12.7948C25.6432 13.288 26.4225 13.7813 26.8269 14.1265H31.2068C31.2068 12.055 29.1057 10.2103 25.7813 8.95745C23.0587 7.93153 19.5172 7.31006 15.6503 7.31006C11.7834 7.31006 8.24195 7.93153 5.51931 8.95745C2.19492 10.2103 0.09375 12.055 0.09375 14.1265H4.47365C4.88797 13.7813 5.66728 13.2782 6.95955 12.7948C9.32706 11.907 12.4147 11.4138 15.6503 11.4138Z" fill="#F9C802"/>
</g>
</g>
<defs>
<clipPath id="clip0_473_7111">
<rect width="32" height="32" fill="white"/>
</clipPath>
<clipPath id="clip1_473_7111">
<rect width="34.9209" height="43" fill="white" transform="translate(-1.76074)"/>
</clipPath>
</defs>
</svg>
