<svg width="32" height="32" viewBox="0 0 32 32" fill="none" xmlns="http://www.w3.org/2000/svg">
<g clip-path="url(#clip0_473_7545)">
<path d="M22.2109 26.375C22.5645 26.371 22.9207 26.3763 23.2793 26.3965C23.4968 26.4086 23.7133 26.4261 23.9277 26.4473L25.1045 26.5615C25.1055 26.5657 25.1074 26.5732 25.1074 26.5732C26.1752 26.7024 33.9297 28.1217 33.9297 42.2217H-1.34766C-1.34766 27.0789 7.59863 26.5615 7.59863 26.5615L8.77441 26.4473C8.98895 26.4261 9.20627 26.4086 9.42383 26.3965C9.78129 26.3774 10.1378 26.371 10.4912 26.375L16.3516 26.29L22.2109 26.375Z" fill="#7590BB"/>
<g clip-path="url(#clip1_473_7545)">
<path d="M28.711 16.1769C28.6729 12.4963 27.0614 9.20668 24.5346 6.90871C22.2748 4.85865 19.2903 3.60001 16.0102 3.60001C12.7301 3.60001 9.71697 4.86818 7.45713 6.92778C4.93032 9.23529 3.32841 12.5345 3.2998 16.215C3.2998 16.2436 3.2998 16.2818 3.2998 16.3104C3.2998 23.3283 8.9923 29.0207 16.0102 29.0207C23.0281 29.0207 28.7205 23.3283 28.7205 16.3104C28.7205 16.2627 28.7205 16.215 28.7205 16.1673L28.711 16.1769Z" fill="#FCE3CD"/>
<path d="M7.44718 6.92808C6.78925 6.38458 5.95969 6.10806 4.91082 6.29876C3.62358 6.53714 2.53657 7.50972 2.1647 8.76837C1.98353 9.39769 1.97399 10.0842 1.69747 10.6849C1.23025 11.7147 -0.0188544 12.4203 0.000215958 13.555C0.0192863 14.7755 1.36374 15.5193 2.34587 15.9293C2.65099 16.0532 2.96565 16.1486 3.28985 16.2153C3.31845 12.5348 4.92036 9.23559 7.44718 6.92808Z" fill="#C1C1C1"/>
<path d="M30.2932 10.637C30.0167 10.0363 30.0071 9.35931 29.826 8.72045C29.4636 7.46181 28.3671 6.48922 27.0798 6.25084C26.0214 6.06014 25.1823 6.3462 24.5244 6.89924C27.0608 9.19721 28.6627 12.4868 28.7008 16.1674C29.025 16.1007 29.3397 16.0053 29.6448 15.8814C30.6269 15.4713 31.9809 14.7371 31.9904 13.5071C32.0095 12.3724 30.7604 11.6668 30.2837 10.637H30.2932Z" fill="#C1C1C1"/>
<path d="M17.4688 7.68106L14.5624 7.68106" stroke="#E8C299" stroke-width="0.953516" stroke-miterlimit="10" stroke-linecap="round"/>
<path d="M18.04 9.79825L13.959 9.79825" stroke="#E8C299" stroke-width="0.953516" stroke-miterlimit="10" stroke-linecap="round"/>
<path d="M19.2613 18.7325C18.2029 18.4655 17.0873 18.6276 16.0003 18.6085C14.9228 18.6276 13.8072 18.4655 12.7393 18.7325C11.6332 19.009 10.4985 20.1151 10.6892 21.3547C10.7655 21.86 11.166 22.3368 11.6713 22.4131C12.129 22.4798 12.6058 22.2319 13.0635 22.3559C13.2732 22.4131 13.4544 22.537 13.6546 22.6228C14.3126 22.9089 15.0182 22.6705 15.7333 22.4607C15.9049 22.4131 16.0766 22.4131 16.2482 22.4607C16.9633 22.6705 17.6689 22.9089 18.3269 22.6228C18.5271 22.537 18.7083 22.4035 18.918 22.3559C19.3662 22.2414 19.843 22.4798 20.3102 22.4131C20.8251 22.3368 21.216 21.86 21.2923 21.3547C21.4925 20.1151 20.3579 19.009 19.2422 18.7325H19.2613Z" fill="#C1C1C1"/>
<path d="M16.0004 19.5048C16.7536 19.5048 17.3639 18.8945 17.3639 18.1413C17.3639 17.388 16.7536 16.7777 16.0004 16.7777C15.2471 16.7777 14.6368 17.388 14.6368 18.1413C14.6368 18.8945 15.2471 19.5048 16.0004 19.5048Z" fill="#E8C299"/>
<path d="M12.5001 16.2599C13.1301 16.2599 13.6301 15.7499 13.6301 15.1299C13.6301 14.5099 13.1201 13.9999 12.5001 13.9999C11.8801 13.9999 11.3701 14.5099 11.3701 15.1299C11.3701 15.7499 11.8801 16.2599 12.5001 16.2599Z" fill="#303030"/>
<path d="M19.5001 16.2599C20.1301 16.2599 20.6301 15.7499 20.6301 15.1299C20.6301 14.5099 20.1201 13.9999 19.5001 13.9999C18.8801 13.9999 18.3701 14.5099 18.3701 15.1299C18.3701 15.7499 18.8801 16.2599 19.5001 16.2599Z" fill="#303030"/>
</g>
</g>
<defs>
<clipPath id="clip0_473_7545">
<rect width="32" height="32" fill="white"/>
</clipPath>
<clipPath id="clip1_473_7545">
<rect width="32" height="25.4303" fill="white" transform="translate(0 3.60001)"/>
</clipPath>
</defs>
</svg>
