<svg width="32" height="32" viewBox="0 0 32 32" fill="none" xmlns="http://www.w3.org/2000/svg">
<g clip-path="url(#clip0_473_6390)">
<path d="M22.7051 26.376C22.8956 26.3793 23.0872 26.3857 23.2793 26.3965C23.4968 26.4086 23.7133 26.4261 23.9277 26.4473L25.1045 26.5615C25.1055 26.5657 25.1074 26.5732 25.1074 26.5732C26.1752 26.7024 33.9297 28.1217 33.9297 42.2217H-1.34766C-1.34766 27.0789 7.59863 26.5615 7.59863 26.5615L8.77441 26.4473C8.98895 26.4261 9.20627 26.4086 9.42383 26.3965C9.57084 26.3886 9.71772 26.3837 9.86426 26.3799L16.291 24.6895L22.7051 26.376Z" fill="#3177E4"/>
<path d="M6.6157 18.3976C6.10201 19.2931 5.2086 19.8853 4.19331 19.8853C2.59987 19.8853 1.30859 18.4279 1.30859 16.6289C1.30859 14.83 2.59987 13.3726 4.19331 13.3726C5.14816 13.3726 5.99424 13.8953 6.51901 14.7021" fill="#FAC4AB"/>
<path d="M4.86328 15.3403L5.78994 16.4161" stroke="#221F1F" stroke-width="0.424045" stroke-linecap="round" stroke-linejoin="round"/>
<path d="M16.2914 28.8704C22.87 28.8704 28.2029 23.5375 28.2029 16.9589C28.2029 10.3803 22.87 5.04736 16.2914 5.04736C9.71286 5.04736 4.37988 10.3803 4.37988 16.9589C4.37988 23.5375 9.71286 28.8704 16.2914 28.8704Z" fill="#FAC4AB"/>
<path d="M12.9899 19.1381C13.5812 19.1381 14.0616 18.6587 14.0616 18.0664C14.0616 17.4742 13.5822 16.9947 12.9899 16.9947C12.3977 16.9947 11.9182 17.4742 11.9182 18.0664C11.9182 18.6587 12.3977 19.1381 12.9899 19.1381Z" fill="#303030"/>
<path d="M19.5928 19.138C20.184 19.138 20.6644 18.6585 20.6644 18.0663C20.6644 17.474 20.185 16.9946 19.5928 16.9946C19.0005 16.9946 18.5211 17.474 18.5211 18.0663C18.5211 18.6585 19.0005 19.138 19.5928 19.138Z" fill="#303030"/>
<path d="M16.2913 23.0986C15.2891 23.0986 14.2869 22.7168 13.5244 21.9544C13.3088 21.7378 13.3088 21.3883 13.5244 21.1717C13.7399 20.9562 14.0905 20.9562 14.307 21.1717C15.4019 22.2666 17.1827 22.2666 18.2775 21.1717C18.4941 20.9562 18.8436 20.9562 19.0601 21.1717C19.2757 21.3873 19.2757 21.7378 19.0601 21.9544C18.2977 22.7168 17.2945 23.0986 16.2923 23.0986H16.2913Z" fill="#303030" stroke="#303030" stroke-width="0.285047" stroke-miterlimit="10"/>
<path d="M25.9523 14.8609C26.0983 14.8609 26.1527 15.2063 26.2303 15.0714C26.5012 14.6 26.9857 14.4056 27.5467 14.181C27.86 14.0551 28.1843 13.9251 28.5026 13.7368C29.4172 13.1919 29.952 12.1998 30.092 10.7856C30.2189 9.49634 29.9772 8.18794 29.8221 7.52317C29.4081 5.75246 28.416 4.30003 27.029 3.4328C26.3481 3.00674 25.5776 2.74587 24.7386 2.65622C24.6308 2.64514 24.524 2.64212 24.4203 2.64011C24.1957 2.63507 23.9841 2.63003 23.8895 2.53838C22.6163 1.31056 20.5747 0.530961 17.6476 0.156271C14.6542 -0.227485 12.1572 0.0938225 10.0138 1.13933C8.82529 1.71849 7.74856 2.5001 6.81385 3.45999C4.73291 5.59835 3.46883 8.48911 3.43056 11.1935C3.41746 12.1343 3.55243 13.0257 3.83043 13.8436L3.83748 13.8657C4.09533 14.6403 4.24843 15.0462 4.65434 15.0079C5.91741 14.8991 8.67421 12.5513 9.64921 11.6881C9.51525 12.1091 9.05494 12.936 8.52212 13.6864C8.40729 13.8476 8.42039 14.0672 8.55334 14.2142C8.6863 14.3613 8.90285 14.3955 9.07509 14.2978L14.1364 11.4101L13.3186 12.7991C13.242 12.929 13.241 13.0912 13.3155 13.2231C13.3911 13.354 13.5301 13.4356 13.6822 13.4356C16.5266 13.4356 19.3549 11.0314 20.5767 9.84585C21.323 12.8726 25.4718 15.1308 25.6652 15.2345L25.9523 14.8629V14.8609Z" fill="#303030"/>
<path d="M25.9531 14.8612C26.4668 13.9658 27.3602 13.3735 28.3755 13.3735C29.969 13.3735 31.2602 14.831 31.2602 16.6299C31.2602 18.4288 29.969 19.8863 28.3755 19.8863C27.6594 19.8863 27.0047 19.5922 26.5011 19.1047" fill="#FAC4AB"/>
</g>
<defs>
<clipPath id="clip0_473_6390">
<rect width="32" height="32" fill="white"/>
</clipPath>
</defs>
</svg>
