<svg width="24" height="24" viewBox="0 0 24 24" fill="none" xmlns="http://www.w3.org/2000/svg">
<path d="M6.5 2.7002C7.19599 2.7002 7.74095 2.70011 8.17383 2.74414C8.61143 2.78869 8.96776 2.8811 9.27734 3.08789C9.52848 3.2557 9.7443 3.47152 9.91211 3.72266C10.1189 4.03224 10.2113 4.38857 10.2559 4.82617C10.2999 5.25905 10.2998 5.80401 10.2998 6.5C10.2998 7.19599 10.2999 7.74095 10.2559 8.17383C10.2113 8.61143 10.1189 8.96776 9.91211 9.27734C9.7443 9.52848 9.52848 9.7443 9.27734 9.91211C8.96776 10.1189 8.61143 10.2113 8.17383 10.2559C7.74095 10.2999 7.19599 10.2998 6.5 10.2998C5.80401 10.2998 5.25905 10.2999 4.82617 10.2559C4.38857 10.2113 4.03224 10.1189 3.72266 9.91211C3.47152 9.7443 3.2557 9.52848 3.08789 9.27734C2.8811 8.96776 2.78869 8.61143 2.74414 8.17383C2.70011 7.74095 2.7002 7.19599 2.7002 6.5C2.7002 5.80401 2.70011 5.25905 2.74414 4.82617C2.78869 4.38857 2.8811 4.03224 3.08789 3.72266C3.2557 3.47152 3.47152 3.2557 3.72266 3.08789C4.03224 2.8811 4.38857 2.78869 4.82617 2.74414C5.25905 2.70011 5.80401 2.7002 6.5 2.7002Z" fill="#FF8A8A" stroke="#FF8A8A" stroke-width="0.6" stroke-linecap="round" stroke-linejoin="round"/>
<path d="M17.5 7.7002C17.92 7.7002 18.3044 7.93771 18.4922 8.31348L21.1826 13.6953C21.2596 13.8494 21.2998 14.0194 21.2998 14.1914C21.2996 14.8036 20.8036 15.2996 20.1914 15.2998H14.8086C14.1964 15.2996 13.7004 14.8036 13.7002 14.1914C13.7002 14.0194 13.7404 13.8494 13.8174 13.6953L16.5078 8.31348C16.6956 7.93771 17.08 7.7002 17.5 7.7002Z" fill="#7BEBFF" stroke="#7BEBFF" stroke-width="0.6" stroke-linecap="round" stroke-linejoin="round"/>
<path d="M6.5 13.7002C8.59868 13.7002 10.2998 15.4013 10.2998 17.5C10.2998 19.5987 8.59868 21.2998 6.5 21.2998C4.40132 21.2998 2.7002 19.5987 2.7002 17.5C2.7002 15.4013 4.40132 13.7002 6.5 13.7002Z" fill="#FFDF3F" stroke="#FFDF3F" stroke-width="0.6" stroke-linecap="round" stroke-linejoin="round"/>
</svg>
