<svg width="24" height="24" viewBox="0 0 24 24" fill="none" xmlns="http://www.w3.org/2000/svg">
<path d="M20.602 1.20068H3.40027C2.74902 1.20068 2.2207 1.69616 2.2207 2.30705V21.6943C2.2207 22.3052 2.74902 22.8007 3.40027 22.8007H20.602C21.2533 22.8007 21.7816 22.3052 21.7816 21.6943V2.30705C21.7816 1.69616 21.2533 1.20068 20.602 1.20068Z" fill="#EDEDED"/>
<path d="M9.27922 14.6748H14.7266C15.4633 14.6748 16.0615 15.273 16.0615 16.0097V22.792H7.94434V16.0097C7.94434 15.273 8.54252 14.6748 9.27922 14.6748Z" fill="#D7D7D7"/>
<rect x="5.25" y="3.74951" width="3" height="3" fill="white"/>
<rect x="5.25" y="8.99951" width="3" height="3" fill="white"/>
<rect x="10.5" y="3.74951" width="3" height="3" fill="white"/>
<rect x="10.5" y="8.99951" width="3" height="3" fill="white"/>
<rect x="15.75" y="3.74951" width="3" height="3" fill="white"/>
<rect x="15.7803" y="9.29883" width="3" height="3" fill="white"/>
</svg>
