<svg width="24" height="24" viewBox="0 0 24 24" fill="none" xmlns="http://www.w3.org/2000/svg">
<circle cx="11.7543" cy="19.1156" r="3.48376" fill="#EBCE39"/>
<rect x="10.5703" y="1" width="2.36849" height="4.1797" rx="1.18425" fill="#FFDD31"/>
<path d="M18.2526 9.58351C18.2544 9.58351 18.2558 9.58207 18.2558 9.58032C18.2541 5.99434 15.348 3.08936 11.7616 3.08936C8.17421 3.08936 5.26069 5.99607 5.26069 9.58351C5.26069 9.58351 4.579 14.5284 2.80601 16.8105C2.41711 17.311 2.24367 18.0158 2.55792 18.5663C2.77276 18.9427 3.17287 19.175 3.60624 19.175H19.9034C20.3368 19.175 20.7369 18.9427 20.9518 18.5663C21.266 18.0158 21.0926 17.311 20.7037 16.8105C18.943 14.5442 18.2585 9.65204 18.2491 9.58422C18.2488 9.58231 18.2507 9.58351 18.2526 9.58351Z" fill="#FFDD31"/>
</svg>
