<svg width="24" height="24" viewBox="0 0 24 24" fill="none" xmlns="http://www.w3.org/2000/svg">
<path d="M20.601 1.20117H3.39929C2.74804 1.20117 2.21973 1.69664 2.21973 2.30754V21.6948C2.21973 22.3057 2.74804 22.8012 3.39929 22.8012H20.601C21.2523 22.8012 21.7806 22.3057 21.7806 21.6948V2.30754C21.7806 1.69664 21.2523 1.20117 20.601 1.20117Z" fill="#EDEDED"/>
<path d="M9.27922 14.6748H14.7266C15.4633 14.6748 16.0615 15.273 16.0615 16.0097V22.792H7.94434V16.0097C7.94434 15.273 8.54252 14.6748 9.27922 14.6748Z" fill="#D7D7D7"/>
<path d="M11.6424 7.23725C11.0076 6.7905 9.75 5.76912 9.75 4.84999C9.75 4.24248 10.2237 3.75 10.875 3.75C11.2125 3.75 11.55 3.85588 12 4.27941C12.45 3.85588 12.7875 3.75 13.125 3.75C13.7763 3.75 14.25 4.24248 14.25 4.84999C14.25 5.76912 12.9924 6.7905 12.3576 7.23725C12.144 7.38758 11.856 7.38758 11.6424 7.23725Z" fill="#3DD288"/>
<path d="M13.0127 7.89241C13.4595 7.25762 14.4809 6 15.4 6C16.0075 6 16.5 6.47368 16.5 7.125C16.5 7.4625 16.3941 7.8 15.9706 8.25C16.3941 8.7 16.5 9.0375 16.5 9.375C16.5 10.0263 16.0075 10.5 15.4 10.5C14.4809 10.5 13.4595 9.24238 13.0127 8.60759C12.8624 8.39398 12.8624 8.10602 13.0127 7.89241Z" fill="#3DD288"/>
<path d="M12.3576 9.26275C12.9924 9.7095 14.25 10.7309 14.25 11.65C14.25 12.2575 13.7763 12.75 13.125 12.75C12.7875 12.75 12.45 12.6441 12 12.2206C11.55 12.6441 11.2125 12.75 10.875 12.75C10.2237 12.75 9.75 12.2575 9.75 11.65C9.75 10.7309 11.0076 9.7095 11.6424 9.26275C11.856 9.11242 12.144 9.11242 12.3576 9.26275Z" fill="#3DD288"/>
<path d="M10.9873 8.60759C10.5405 9.24238 9.51912 10.5 8.59999 10.5C7.99248 10.5 7.5 10.0263 7.5 9.375C7.5 9.0375 7.60588 8.7 8.02941 8.25C7.60588 7.8 7.5 7.4625 7.5 7.125C7.5 6.47369 7.99248 6 8.59999 6C9.51912 6 10.5405 7.25762 10.9873 7.89241C11.1376 8.10602 11.1376 8.39398 10.9873 8.60759Z" fill="#3DD288"/>
</svg>
