<svg width="24" height="24" viewBox="0 0 24 24" fill="none" xmlns="http://www.w3.org/2000/svg">
<g clip-path="url(#clip0_2_906)">
<path d="M21.648 5.12988H2.3516C1.42663 5.12988 0.668945 5.88757 0.668945 6.81254V13.4448H23.3307V6.81254C23.3307 5.88757 22.573 5.12988 21.648 5.12988Z" fill="#BFDCF5"/>
<path d="M0.668945 16.7815C0.668945 17.7065 1.42663 18.4642 2.3516 18.4642H21.648C22.573 18.4642 23.3307 17.7065 23.3307 16.7815V13.4556H0.668945V16.7815Z" fill="#80CDF6"/>
<path d="M5.98255 21.0632C7.41727 21.0632 8.58034 19.9002 8.58034 18.4655C8.58034 17.0307 7.41727 15.8677 5.98255 15.8677C4.54783 15.8677 3.38477 17.0307 3.38477 18.4655C3.38477 19.9002 4.54783 21.0632 5.98255 21.0632Z" fill="#5A5A5A"/>
<path d="M18.0167 21.0632C19.4514 21.0632 20.6145 19.9002 20.6145 18.4655C20.6145 17.0307 19.4514 15.8677 18.0167 15.8677C16.582 15.8677 15.4189 17.0307 15.4189 18.4655C15.4189 19.9002 16.582 21.0632 18.0167 21.0632Z" fill="#5A5A5A"/>
<path d="M18.017 19.5469C18.6148 19.5469 19.0994 19.0623 19.0994 18.4645C19.0994 17.8667 18.6148 17.3821 18.017 17.3821C17.4192 17.3821 16.9346 17.8667 16.9346 18.4645C16.9346 19.0623 17.4192 19.5469 18.017 19.5469Z" fill="white"/>
<path d="M5.9828 19.5469C6.5806 19.5469 7.06521 19.0623 7.06521 18.4645C7.06521 17.8667 6.5806 17.3821 5.9828 17.3821C5.385 17.3821 4.90039 17.8667 4.90039 18.4645C4.90039 19.0623 5.385 19.5469 5.9828 19.5469Z" fill="white"/>
<path d="M1.16113 15.2852H0.177122C0.0793001 15.2852 0 15.3645 0 15.4623V16.4463C0 16.5441 0.0793001 16.6234 0.177122 16.6234H1.16113C1.25895 16.6234 1.33825 16.5441 1.33825 16.4463V15.4623C1.33825 15.3645 1.25895 15.2852 1.16113 15.2852Z" fill="#FFE478"/>
<path d="M23.8232 15.2852H22.8392C22.7414 15.2852 22.6621 15.3645 22.6621 15.4623V16.4463C22.6621 16.5441 22.7414 16.6234 22.8392 16.6234H23.8232C23.9211 16.6234 24.0004 16.5441 24.0004 16.4463V15.4623C24.0004 15.3645 23.9211 15.2852 23.8232 15.2852Z" fill="#FFE478"/>
<path d="M16.1875 6.62524C16.4862 6.62546 16.7285 6.8675 16.7285 7.16626V10.01C16.7285 10.3087 16.4862 10.5508 16.1875 10.551H2.89355C2.59469 10.551 2.35162 10.3089 2.35156 10.01V7.16626C2.35156 6.86736 2.59466 6.62524 2.89355 6.62524H16.1875Z" fill="#5B5B5B"/>
<path d="M18.6271 6.62524H23.3307V11.9586H18.6271C18.3319 11.9586 18.0859 11.7126 18.0859 11.4174V7.16645C18.0859 6.87125 18.3319 6.62524 18.6271 6.62524Z" fill="#5B5B5B"/>
</g>
<defs>
<clipPath id="clip0_2_906">
<rect width="24" height="15.9311" fill="white" transform="translate(0 5.12939)"/>
</clipPath>
</defs>
</svg>
