<svg width="24" height="24" viewBox="0 0 24 24" fill="none" xmlns="http://www.w3.org/2000/svg">
<g clip-path="url(#clip0_104_4875)">
<path d="M19.1372 7.38628H16.1713V5.59772C16.1713 5.09082 15.7329 4.67969 15.1925 4.67969H8.80915C8.26877 4.67969 7.83039 5.09082 7.83039 5.59772V7.38628H4.86451C4.32412 7.38628 3.88574 7.79741 3.88574 8.30431V21.6854C3.88574 22.1923 4.32412 22.6034 4.86451 22.6034H19.138C19.6783 22.6034 20.1167 22.1923 20.1167 21.6854V8.30431C20.1167 7.79741 19.6783 7.38628 19.138 7.38628H19.1372Z" fill="#EDEDED"/>
<circle cx="18" cy="18.6001" r="4" fill="#F8CE62"/>
<circle cx="17.9999" cy="18.6" r="2.90909" fill="#FEEBB2"/>
<g clip-path="url(#clip1_104_4875)">
<path d="M19.2025 18.293H19.1276L19.2611 17.7639C19.2704 17.7241 19.2611 17.6819 19.2377 17.6492C19.2143 17.6164 19.1745 17.5977 19.1323 17.5977H18.9099C18.849 17.5977 18.7952 17.6398 18.7811 17.7007L18.6196 18.3796C18.6196 18.3796 18.6172 18.389 18.6149 18.3937L18.5259 18.7613L18.2239 17.7171C18.2216 17.6936 18.2145 17.6702 18.2005 17.6515C18.1935 17.6421 18.1841 17.6375 18.1747 17.6304C18.1724 17.6281 18.1677 17.6258 18.1654 17.6234C18.156 17.6187 18.149 17.614 18.1396 17.6094C18.1279 17.6047 18.1162 17.6023 18.1022 17.6C18.0998 17.6 18.0975 17.6 18.0928 17.6H17.9055C17.9055 17.6 17.9008 17.6 17.8961 17.6C17.8844 17.6 17.8704 17.6047 17.8587 17.6094C17.8493 17.614 17.84 17.6164 17.8329 17.6234C17.8306 17.6234 17.8259 17.6281 17.8236 17.6304C17.8142 17.6375 17.8048 17.6421 17.7978 17.6515C17.7838 17.6702 17.7767 17.6936 17.7744 17.7171L17.4724 18.7636L17.3834 18.396C17.3834 18.396 17.3811 18.3867 17.3787 18.382L17.2219 17.703C17.2078 17.6445 17.154 17.6 17.0931 17.6H16.8707C16.8309 17.6 16.7911 17.6187 16.7653 17.6515C16.7396 17.6843 16.7302 17.7264 16.7419 17.7662L16.8754 18.2953H16.8004C16.7279 18.2953 16.667 18.3539 16.667 18.4288V18.5997C16.667 18.6723 16.7255 18.7332 16.8004 18.7332H16.9831L17.2172 19.6533C17.2312 19.7118 17.2851 19.7539 17.346 19.7539H17.559C17.6175 19.7539 17.6714 19.7141 17.6878 19.6579L18.0038 18.5505L18.3199 19.6579C18.3363 19.7141 18.3878 19.7539 18.4487 19.7539H18.6617C18.7226 19.7539 18.7764 19.7118 18.7905 19.6533L19.0246 18.7332H19.2072C19.2798 18.7332 19.3407 18.6746 19.3407 18.5997V18.4288C19.3407 18.3562 19.2822 18.2953 19.2072 18.2953L19.2025 18.293Z" fill="#F8CE62"/>
</g>
<path d="M22.598 9.54881L12.7933 1.32236C12.6056 1.13782 12.3666 1.03115 12.1197 1.00545C12.1182 1.00545 12.1158 1.00545 12.1143 1.00545C12.0894 1.00311 12.0645 1.00234 12.0395 1.00156C12.0263 1.00156 12.0131 1 11.9998 1C11.9866 1 11.9734 1.00078 11.9601 1.00156C11.9352 1.00234 11.9103 1.00311 11.8854 1.00545C11.8838 1.00545 11.8815 1.00545 11.8799 1.00545C11.6323 1.03115 11.3933 1.13782 11.2064 1.32236L1.40239 9.54881C0.925857 9.94903 0.863565 10.6592 1.26379 11.1365L2.12576 12.1635C2.52598 12.64 3.23611 12.7023 3.71343 12.3021L12.0006 5.34799L20.2878 12.3021C20.7643 12.7023 21.4752 12.64 21.8755 12.1635L22.7374 11.1365C23.1377 10.6599 23.0754 9.94903 22.5988 9.54881H22.598Z" fill="#A1A1A1"/>
</g>
<defs>
<clipPath id="clip0_104_4875">
<rect width="22" height="21.606" fill="white" transform="translate(1 1)"/>
</clipPath>
<clipPath id="clip1_104_4875">
<rect width="2.66667" height="2.14925" fill="white" transform="translate(16.667 17.6001)"/>
</clipPath>
</defs>
</svg>
