<svg width="24" height="24" viewBox="0 0 24 24" fill="none" xmlns="http://www.w3.org/2000/svg">
<g clip-path="url(#clip0_618_10841)">
<path d="M15.4643 4.74343L15.5015 4.8948L15.6505 4.81912C19.0397 3.24863 22.2427 7.33567 19.9894 10.3442L19.8963 10.4766L20.0453 10.5523C23.36 12.2742 22.2241 17.3451 18.4997 17.4397H18.3507L18.388 17.61C19.1328 21.3186 14.5146 23.5703 12.131 20.6753L12.0379 20.5429L11.9447 20.6753C9.56114 23.5703 4.94289 21.3186 5.68776 17.61L5.72501 17.4587H5.57603C1.85164 17.3641 0.715697 12.2931 4.03041 10.5712L4.17938 10.4956L4.08627 10.3631C1.75853 7.35459 4.94289 3.28648 8.33208 4.83804L8.48106 4.91372L8.5183 4.76235C9.43078 1.09159 14.5518 1.09159 15.4643 4.76235V4.74343Z" fill="#F8BA31"/>
<path d="M12.0001 16.3994C14.3964 16.3994 16.339 14.4256 16.339 11.9907C16.339 9.55588 14.3964 7.58203 12.0001 7.58203C9.60373 7.58203 7.66113 9.55588 7.66113 11.9907C7.66113 14.4256 9.60373 16.3994 12.0001 16.3994Z" fill="#FFE576"/>
</g>
<defs>
<clipPath id="clip0_618_10841">
<rect width="20" height="20" fill="white" transform="translate(2 2)"/>
</clipPath>
</defs>
</svg>
