<svg width="24" height="24" viewBox="0 0 24 24" fill="none" xmlns="http://www.w3.org/2000/svg">
<g clip-path="url(#clip0_2_866)">
<g clip-path="url(#clip1_2_866)">
<mask id="mask0_2_866" style="mask-type:luminance" maskUnits="userSpaceOnUse" x="0" y="0" width="24" height="24">
<path d="M23.0162 0.983643H0.983398V23.0164H23.0162V0.983643Z" fill="white"/>
</mask>
<g mask="url(#mask0_2_866)">
<path d="M18.6781 5.55615H5.12402V19.1103H18.6781V5.55615Z" fill="#008CE3"/>
<path d="M11.9998 0.983643C5.9211 0.983643 0.983398 5.92135 0.983398 12C0.983398 18.0787 5.9211 23.0164 11.9998 23.0164C18.0785 23.0164 23.0162 18.0787 23.0162 12C23.0162 5.92135 18.0883 0.983643 11.9998 0.983643ZM11.9998 20.6951C7.19979 20.6951 3.30471 16.8 3.30471 12C3.30471 7.20004 7.19979 3.30495 11.9998 3.30495C16.7998 3.30495 20.6949 7.20004 20.6949 12C20.6949 16.8 16.7998 20.6951 11.9998 20.6951Z" fill="#DBEAFE"/>
<path d="M11.9998 3.30444C7.19977 3.30444 3.30469 7.19953 3.30469 11.9995C3.30469 16.7995 7.19977 20.6946 11.9998 20.6946C16.7998 20.6946 20.6949 16.7995 20.6949 11.9995C20.6949 7.19953 16.7998 3.30444 11.9998 3.30444ZM12.4227 16.111V16.9864H11.4785V16.0913C10.0129 15.9143 9.16698 15.0094 9.16698 13.7208V13.593H10.6424V13.77C10.6424 14.2815 10.9571 14.6749 11.4785 14.8225V12.4815C11.4096 12.4618 11.3309 12.452 11.2522 12.4323C9.9637 12.1667 9.15715 11.4389 9.15715 10.1405C9.15715 8.98969 9.9342 8.00608 11.4686 7.88805V7.01264H12.4129V7.91756C13.7998 8.11428 14.5276 9.05854 14.5276 10.1405V10.2487H13.0424V10.1405C13.0424 9.73723 12.8063 9.3733 12.4129 9.21592V11.311C13.9473 11.6258 14.8227 12.3044 14.8227 13.7307C14.8227 15.0487 13.9276 15.9733 12.4129 16.1208L12.4227 16.111Z" fill="#BFDCF5"/>
<path d="M10.6426 10.132C10.6426 10.6534 10.9082 10.9681 11.4786 11.1255V9.14844C10.918 9.25663 10.6426 9.6304 10.6426 10.132Z" fill="#BFDCF5"/>
<path d="M12.4229 12.668V14.8516C13.0032 14.7237 13.3573 14.3401 13.3573 13.7696C13.3573 13.1991 13.0819 12.8155 12.4229 12.668Z" fill="#BFDCF5"/>
<path d="M13.1112 4.41592C15.226 4.41592 17.1735 5.1733 18.6785 6.43231C17.085 4.52412 14.685 3.30444 11.9998 3.30444C7.19977 3.30444 3.30469 7.19953 3.30469 11.9995C3.30469 14.6848 4.52436 17.0749 6.43256 18.6782C5.17354 17.1733 4.41616 15.2258 4.41616 13.111C4.41616 8.311 8.31124 4.41592 13.1112 4.41592Z" fill="#80CDF6"/>
</g>
</g>
</g>
<defs>
<clipPath id="clip0_2_866">
<rect width="24" height="24" fill="white"/>
</clipPath>
<clipPath id="clip1_2_866">
<rect width="22.0328" height="22.0328" fill="white" transform="translate(0.983398 0.983643)"/>
</clipPath>
</defs>
</svg>
