<svg width="24" height="24" viewBox="0 0 24 24" fill="none" xmlns="http://www.w3.org/2000/svg">
<g clip-path="url(#clip0_2_837)">
<path d="M21.5221 6.98047H13.4962C12.6841 6.98047 12.0183 7.63893 12.0183 8.45835V8.71442H11.9744V8.45835C11.9744 7.64625 11.3159 6.98047 10.4965 6.98047H2.47788C1.66578 6.98047 1 7.63893 1 8.45835V17.6915C1 18.5036 1.65846 19.1694 2.47788 19.1694H21.5294C22.3415 19.1694 23.0073 18.5109 23.0073 17.6915V8.45835C23.0073 7.64625 22.3488 6.98047 21.5294 6.98047H21.5221Z" fill="#1EC38A"/>
<path d="M20.3815 3.01643C18.4573 3.30908 14.7773 4.15777 11.9971 6.62335V18.5781C14.9382 15.9589 18.9036 15.1614 20.7107 14.92C21.2668 14.8468 21.6765 14.364 21.6765 13.8079V4.1285C21.6765 3.44078 21.0619 2.914 20.3742 3.01643H20.3815Z" fill="#E2E2E2"/>
<path d="M11.9968 6.61699C9.68486 4.56112 6.74372 3.62464 4.71712 3.20761C3.47335 2.94423 2.31738 3.90997 2.31738 5.17569V13.8089C2.31738 14.3722 2.72709 14.8478 3.28313 14.9209C5.09025 15.1624 9.04834 15.9599 11.9968 18.5791V6.61699Z" fill="#F2F2F2"/>
<path d="M13.0865 18.8672H10.9062C10.4307 18.8672 10.6355 19.2184 10.6429 19.2184L10.994 19.8183H13.006L13.3572 19.2184C13.3572 19.2184 13.5694 18.8672 13.0938 18.8672H13.0865Z" fill="#1EC38A"/>
</g>
<defs>
<clipPath id="clip0_2_837">
<rect width="22" height="16.8128" fill="white" transform="translate(1 3)"/>
</clipPath>
</defs>
</svg>
