<svg width="24" height="24" viewBox="0 0 24 24" fill="none" xmlns="http://www.w3.org/2000/svg">
<g clip-path="url(#clip0_2_1110)">
<path d="M19.4362 3H4.75309C3.2326 3 2 4.2326 2 5.75309V20.4362C2 21.9567 3.2326 23.1893 4.75309 23.1893H19.4362C20.9567 23.1893 22.1893 21.9567 22.1893 20.4362V5.75309C22.1893 4.2326 20.9567 3 19.4362 3Z" fill="#DEE0DE"/>
<path d="M8.1582 1H16.2615L12.2144 4.20276L8.1582 1Z" fill="#C4C4C4"/>
<path d="M10.6584 5.76689L12.0081 4.41716C12.1184 4.30685 12.3001 4.30685 12.4105 4.41716L13.7602 5.76689C14.0003 6.00699 14.0003 6.39633 13.7602 6.63643L12.6441 7.75255C12.404 7.99265 12.0146 7.99265 11.7745 7.75255L10.6584 6.63643C10.4183 6.39633 10.4183 6.00699 10.6584 5.76689Z" fill="#68CE9F"/>
<path d="M13.2324 7.15614L12.2505 7.10107C12.2505 7.10107 12.1954 7.10107 12.1587 7.10107L11.1768 7.15614L9.10276 17.3701C9.0477 17.627 9.13029 17.8932 9.31383 18.0859L11.6264 20.4994C11.9384 20.8298 12.4707 20.8298 12.7827 20.4994L15.0953 18.0859C15.2789 17.8932 15.3523 17.627 15.3064 17.3701L13.2324 7.15614Z" fill="#68CE9F"/>
<path d="M16.2609 1L17.9862 2.77115C18.1238 2.90881 18.1422 3.10152 18.0412 3.26671L15.5635 7.15774C15.3891 7.42387 14.967 7.4514 14.7651 7.20362L12.2139 4.21193L16.2609 1Z" fill="#D1D1D1"/>
<path d="M8.15787 1L6.4326 2.77115C6.29495 2.90881 6.27659 3.10152 6.37754 3.26671L8.85532 7.15774C9.02968 7.42387 9.45182 7.4514 9.65371 7.20362L12.2049 4.21193L8.15787 1Z" fill="#D1D1D1"/>
</g>
<defs>
<clipPath id="clip0_2_1110">
<rect width="20.1893" height="22.3" fill="white" transform="translate(2 1)"/>
</clipPath>
</defs>
</svg>
