<svg width="24" height="24" viewBox="0 0 24 24" fill="none" xmlns="http://www.w3.org/2000/svg">
<g clip-path="url(#clip0_73_3935)">
<path d="M14.1191 2.56847L15.0538 5.47287C15.4211 6.57454 16.456 7.34237 17.6244 7.34237H20.6957C22.8657 7.34237 23.767 10.1466 22.0311 11.4152L19.5607 13.2179C18.6259 13.919 18.2253 15.1208 18.5925 16.2559L19.5273 19.1603C20.195 21.2301 17.8247 22.966 16.0554 21.6641L13.585 19.8613C12.6502 19.1603 11.3482 19.1603 10.4135 19.8613L7.94307 21.6641C6.17373 22.9327 3.80347 21.2301 4.47115 19.1603L5.4059 16.2559C5.77312 15.1542 5.37251 13.919 4.43776 13.2179L1.96735 11.4152C0.164623 10.1466 1.06599 7.34237 3.26933 7.34237H6.34065C7.50908 7.34237 8.54398 6.57454 8.91121 5.47287L9.84596 2.56847C10.5136 0.498663 13.4514 0.498663 14.1191 2.56847Z" fill="#FDD922"/>
</g>
<defs>
<clipPath id="clip0_73_3935">
<rect width="22" height="21.132" fill="white" transform="translate(1 1)"/>
</clipPath>
</defs>
</svg>
