<svg width="24" height="24" viewBox="0 0 24 24" fill="none" xmlns="http://www.w3.org/2000/svg">
<path d="M20.601 1.20117H3.39929C2.74804 1.20117 2.21973 1.69664 2.21973 2.30754V21.6948C2.21973 22.3057 2.74804 22.8012 3.39929 22.8012H20.601C21.2523 22.8012 21.7806 22.3057 21.7806 21.6948V2.30754C21.7806 1.69664 21.2523 1.20117 20.601 1.20117Z" fill="#EDEDED"/>
<path d="M14.2388 5.54825C13.4343 5.05477 12.7321 5.25363 12.3103 5.5704C12.1373 5.70029 12.0509 5.76523 12 5.76523C11.9491 5.76523 11.8627 5.70029 11.6897 5.5704C11.2679 5.25363 10.5657 5.05477 9.76123 5.54825C8.70542 6.19588 8.46652 8.33247 10.9019 10.135C11.3657 10.4783 11.5976 10.65 12 10.65C12.4024 10.65 12.6343 10.4783 13.0981 10.135C15.5335 8.33247 15.2946 6.19588 14.2388 5.54825Z" fill="#FF7676"/>
<path d="M9.27922 14.6748H14.7266C15.4633 14.6748 16.0615 15.273 16.0615 16.0097V22.792H7.94434V16.0097C7.94434 15.273 8.54252 14.6748 9.27922 14.6748Z" fill="#D7D7D7"/>
</svg>
