<svg width="24" height="24" viewBox="0 0 24 24" fill="none" xmlns="http://www.w3.org/2000/svg">
<g clip-path="url(#clip0_109_6454)">
<path d="M19.158 14.5439C19.158 17.9161 16.4122 20.6675 13.04 20.6675V22.5185C17.4356 22.5185 21.009 18.9451 21.009 14.5495H19.158V14.5439Z" fill="#3D3D3D"/>
<path d="M20.1538 9.96899H18.3028C18.3028 6.59685 15.557 3.84545 12.1848 3.84545C8.81267 3.84545 6.06687 6.59126 6.06687 9.96899H4.21583C4.21023 5.57346 7.78929 2 12.1848 2C16.5803 2 20.1538 5.57346 20.1538 9.96899Z" fill="#3D3D3D"/>
<path d="M5.83203 18.022H5.47413C3.00234 18.022 1.00031 16.0199 1.00031 13.5482V12.7485C1.00031 10.2767 3.00234 8.27464 5.47413 8.27464H5.83203L5.83203 18.022Z" fill="#4C4C4C"/>
<path d="M5.83203 8.26904H6.37448C6.95608 8.26904 7.42583 8.73879 7.42583 9.32039V16.9706C7.42583 17.5522 6.95608 18.022 6.37448 18.022H5.83203V8.26904Z" fill="#3E3E3E"/>
<path d="M18.168 8.26904H18.5259C20.9977 8.26904 22.9997 10.2711 22.9997 12.7429V13.5426C22.9997 16.0143 20.9977 18.0164 18.5259 18.0164H18.168V8.26904Z" fill="#4C4C4C"/>
<path d="M18.168 18.022H17.6255C17.0439 18.022 16.5742 17.5522 16.5742 16.9706V9.3204C16.5742 8.7388 17.0439 8.26905 17.6255 8.26905H18.168V18.022Z" fill="#3E3E3E"/>
<path d="M13.4932 19.1855H12.5816C12.3623 19.1855 12.1846 19.3633 12.1846 19.5826V22.9883C12.1846 23.2076 12.3623 23.3853 12.5816 23.3853H13.4932C13.7124 23.3853 13.8902 23.2076 13.8902 22.9883V19.5826C13.8902 19.3633 13.7124 19.1855 13.4932 19.1855Z" fill="#ACACAC"/>
</g>
<defs>
<clipPath id="clip0_109_6454">
<rect width="22" height="21.3848" fill="white" transform="translate(1 2)"/>
</clipPath>
</defs>
</svg>
