<svg width="24" height="24" viewBox="0 0 24 24" fill="none" xmlns="http://www.w3.org/2000/svg">
<g clip-path="url(#clip0_2_1188)">
<path d="M19.1372 7.38628H16.1713V5.59772C16.1713 5.09082 15.7329 4.67969 15.1925 4.67969H8.80915C8.26877 4.67969 7.83039 5.09082 7.83039 5.59772V7.38628H4.86451C4.32412 7.38628 3.88574 7.79741 3.88574 8.30431V21.6854C3.88574 22.1923 4.32412 22.6034 4.86451 22.6034H19.138C19.6783 22.6034 20.1167 22.1923 20.1167 21.6854V8.30431C20.1167 7.79741 19.6783 7.38628 19.138 7.38628H19.1372Z" fill="#DEE0DE"/>
<path d="M22.598 9.54881L12.7933 1.32236C12.6056 1.13782 12.3666 1.03115 12.1197 1.00545C12.1182 1.00545 12.1158 1.00545 12.1143 1.00545C12.0894 1.00311 12.0645 1.00234 12.0395 1.00156C12.0263 1.00156 12.0131 1 11.9998 1C11.9866 1 11.9734 1.00078 11.9601 1.00156C11.9352 1.00234 11.9103 1.00311 11.8854 1.00545C11.8838 1.00545 11.8815 1.00545 11.8799 1.00545C11.6323 1.03115 11.3933 1.13782 11.2064 1.32236L1.40239 9.54881C0.925857 9.94903 0.863565 10.6592 1.26379 11.1365L2.12576 12.1635C2.52598 12.64 3.23611 12.7023 3.71343 12.3021L12.0006 5.34799L20.2878 12.3021C20.7643 12.7023 21.4752 12.64 21.8755 12.1635L22.7374 11.1365C23.1377 10.6599 23.0754 9.94903 22.5988 9.54881H22.598Z" fill="#68C76F"/>
<path d="M9.50451 15.1641H14.4964C15.1715 15.1641 15.7197 15.7122 15.7197 16.3873V22.6025H8.28125V16.3873C8.28125 15.7122 8.82942 15.1641 9.50451 15.1641Z" fill="#ADADAD"/>
</g>
<defs>
<clipPath id="clip0_2_1188">
<rect width="22" height="21.606" fill="white" transform="translate(1 1)"/>
</clipPath>
</defs>
</svg>
