<svg width="24" height="24" viewBox="0 0 24 24" fill="none" xmlns="http://www.w3.org/2000/svg">
<path d="M14.3436 3.99943C13.9185 1.33352 10.0815 1.33353 9.65636 3.99943C9.19222 6.90984 6.90981 9.19232 3.99941 9.65649C1.33356 10.0817 1.3335 13.9183 3.99941 14.3435C6.9098 14.8076 9.19222 17.0901 9.65635 20.0006C10.0815 22.6665 13.9185 22.6665 14.3436 20.0006C14.8078 17.0901 17.0902 14.8076 20.0006 14.3435C22.6665 13.9183 22.6664 10.0817 20.0006 9.65649C17.0902 9.19232 14.8078 6.90984 14.3436 3.99943Z" fill="#BABABA"/>
<path d="M21 6.2625C21.5523 6.2625 22 5.7952 22 5.21875V4.175H23C23.5523 4.175 24 3.7077 24 3.13125C24 2.5548 23.5523 2.0875 23 2.0875H22V1.04375C22 0.467303 21.5523 0 21 0C20.4477 0 20 0.467303 20 1.04375V2.0875H19C18.4477 2.0875 18 2.5548 18 3.13125C18 3.7077 18.4477 4.175 19 4.175H20L20 5.21875C20 5.7952 20.4477 6.2625 21 6.2625Z" fill="#BABABA"/>
</svg>
