<svg width="24" height="24" viewBox="0 0 24 24" fill="none" xmlns="http://www.w3.org/2000/svg">
<g clip-path="url(#clip0_2_1344)">
<path d="M20.4973 3.89101C20.0564 3.38836 19.1216 2.94744 17.8518 2.60352V1.73049C17.8518 1.32485 17.5167 0.989746 17.111 0.989746C16.7054 0.989746 16.3703 1.32485 16.3703 1.73049V2.27724C15.0122 2.03914 13.4337 1.89804 11.7406 1.89804C10.0475 1.89804 8.46015 2.03914 7.11093 2.27724V1.73049C7.11093 1.32485 6.77583 0.989746 6.37018 0.989746C5.96453 0.989746 5.62943 1.32485 5.62943 1.73049V2.60352C4.35958 2.94744 3.42482 3.38836 2.9839 3.89101C2.19024 4.59649 1.53768 6.52772 1.22021 9.06743H22.2698C21.9523 6.52772 21.2998 4.59649 20.5061 3.89101H20.4973Z" fill="#BABABA"/>
<path d="M1.12346 10.0835C1.05291 10.9036 1 11.7502 1 12.6585C1 16.8737 1.84657 20.4099 2.98415 21.4152C3.98945 22.5528 7.52564 23.3993 11.7409 23.3993C15.9561 23.3993 19.4923 22.5528 20.4976 21.4152C21.6351 20.4099 22.4817 16.8737 22.4817 12.6585C22.4817 11.759 22.4288 10.9036 22.3582 10.0835H1.12346Z" fill="#BABABA"/>
</g>
<defs>
<clipPath id="clip0_2_1344">
<rect width="21.4817" height="22.39" fill="white" transform="translate(1 1)"/>
</clipPath>
</defs>
</svg>
