<svg width="24" height="24" viewBox="0 0 24 24" fill="none" xmlns="http://www.w3.org/2000/svg">
<g clip-path="url(#clip0_2_1337)">
<path d="M10.8003 6.35742H1.64209C1.30415 6.35742 1 6.62199 1 6.98577V11.5826C1 11.9133 1.27035 12.211 1.64209 12.211H2.85868V21.3716C2.85868 21.7023 3.12903 21.9999 3.50077 21.9999H10.8003C11.1382 21.9999 11.4424 21.7354 11.4424 21.3716V6.98577C11.4424 6.65506 11.172 6.35742 10.8003 6.35742Z" fill="#BABABA"/>
<path d="M22.3579 6.35742H13.1997C12.8618 6.35742 12.5576 6.62199 12.5576 6.98577V21.3716C12.5576 21.7023 12.828 21.9999 13.1997 21.9999H20.4992C20.8372 21.9999 21.1413 21.7354 21.1413 21.3716V12.211H22.3579C22.6959 12.211 23 11.9464 23 11.5826V6.98577C23 6.65506 22.7297 6.35742 22.3579 6.35742Z" fill="#BABABA"/>
<path d="M10.6312 1.99213C9.92156 1.39685 9.07671 1 8.13047 1H6.8125C6.2042 1 6.17041 1.66142 6.17041 1.66142V4.9685C6.17041 5.66299 6.94768 5.59685 6.94768 5.59685H10.5637C10.5637 5.59685 10.834 5.59685 10.9692 5.53071C11.1382 5.46457 11.2733 5.36535 11.4085 5.23307C11.6789 4.93543 11.7464 4.53858 11.7802 4.1748C11.7802 3.74488 11.7127 3.31496 11.5099 2.95118C11.2733 2.5874 10.9354 2.28976 10.5974 1.99213H10.6312Z" fill="#BABABA"/>
<path d="M13.4023 5.53071C13.4023 5.53071 13.6727 5.59685 13.8079 5.59685H17.4238C17.4238 5.59685 18.2011 5.62992 18.2011 4.9685V1.66142C18.2011 1.66142 18.2011 1 17.559 1H16.241C15.2948 1 14.4499 1.39685 13.7403 1.99213C13.4023 2.28976 13.0644 2.5874 12.8278 2.95118C12.5913 3.31496 12.5237 3.74488 12.5575 4.1748C12.5575 4.53858 12.6589 4.9685 12.9292 5.23307C13.0306 5.36535 13.1996 5.46457 13.3685 5.53071H13.4023Z" fill="#BABABA"/>
</g>
<defs>
<clipPath id="clip0_2_1337">
<rect width="22" height="21" fill="white" transform="translate(1 1)"/>
</clipPath>
</defs>
</svg>
