<svg width="24" height="24" viewBox="0 0 24 24" fill="none" xmlns="http://www.w3.org/2000/svg">
<g clip-path="url(#clip0_2_1360)">
<path d="M11.8477 12.2822C14.687 12.2822 16.9888 9.98047 16.9888 7.14111C16.9888 4.30175 14.687 2 11.8477 2C9.0083 2 6.70654 4.30175 6.70654 7.14111C6.70654 9.98047 9.0083 12.2822 11.8477 12.2822Z" fill="#BABABA"/>
<path d="M11.8477 13.5928C7.69825 13.5928 4.18947 16.3693 3.06056 20.1527C2.78596 21.068 3.44195 21.9986 4.38779 21.9986H19.3077C20.2078 21.9986 20.9095 21.1595 20.6654 20.29C19.5823 16.4303 16.043 13.608 11.8325 13.608L11.8477 13.5928Z" fill="#BABABA"/>
</g>
<defs>
<clipPath id="clip0_2_1360">
<rect width="17.7269" height="20" fill="white" transform="translate(3 2)"/>
</clipPath>
</defs>
</svg>
