<svg width="24" height="24" viewBox="0 0 24 24" fill="none" xmlns="http://www.w3.org/2000/svg">
<g clip-path="url(#clip0_2_1135)">
<g clip-path="url(#clip1_2_1135)">
<path d="M19.9956 10.8391C19.7936 10.4309 19.9529 10.1449 19.9999 9.73378C20.0369 9.41227 20.0582 9.09076 20.0582 8.76783C20.0582 4.33925 16.469 0.75 12.0404 0.75C7.61179 0.75 4.02255 4.33925 4.02255 8.76783C4.02255 9.09076 4.04531 9.41227 4.08087 9.73378C4.12782 10.1435 4.28715 10.4309 4.08514 10.8391C3.29702 12.4254 2.67676 13.9476 2.67676 15.7585C2.67676 20.9297 6.86919 23.25 12.0404 23.25C17.2116 23.25 21.404 20.9297 21.404 15.7585C21.404 13.9476 20.7837 12.4254 19.9956 10.8391Z" fill="#FDE99B"/>
<path d="M9.67257 7.54437C10.1864 7.54437 10.603 7.12782 10.603 6.61398C10.603 6.10014 10.1864 5.68359 9.67257 5.68359C9.15874 5.68359 8.74219 6.10014 8.74219 6.61398C8.74219 7.12782 9.15874 7.54437 9.67257 7.54437Z" fill="#0D140F"/>
<path d="M14.4079 7.54437C14.9218 7.54437 15.3383 7.12782 15.3383 6.61398C15.3383 6.10014 14.9218 5.68359 14.4079 5.68359C13.8941 5.68359 13.4775 6.10014 13.4775 6.61398C13.4775 7.12782 13.8941 7.54437 14.4079 7.54437Z" fill="#0D140F"/>
<path d="M12.0874 10.0622C13.2871 10.0622 14.2597 9.60749 14.2597 9.04651C14.2597 8.48553 13.2871 8.03076 12.0874 8.03076C10.8876 8.03076 9.91504 8.48553 9.91504 9.04651C9.91504 9.60749 10.8876 10.0622 12.0874 10.0622Z" fill="#FFAF4D"/>
<path d="M7.66666 10.0463C8.35413 10.0463 8.91144 9.59281 8.91144 9.03341C8.91144 8.474 8.35413 8.02051 7.66666 8.02051C6.97918 8.02051 6.42188 8.474 6.42188 9.03341C6.42188 9.59281 6.97918 10.0463 7.66666 10.0463Z" fill="#F9B9AA"/>
<path d="M16.4128 10.0463C17.1002 10.0463 17.6575 9.59281 17.6575 9.03341C17.6575 8.474 17.1002 8.02051 16.4128 8.02051C15.7253 8.02051 15.168 8.474 15.168 9.03341C15.168 9.59281 15.7253 10.0463 16.4128 10.0463Z" fill="#F9B9AA"/>
</g>
</g>
<defs>
<clipPath id="clip0_2_1135">
<rect width="24" height="24" fill="white"/>
</clipPath>
<clipPath id="clip1_2_1135">
<rect width="22.5805" height="22.5" fill="white" transform="translate(0.75 0.75)"/>
</clipPath>
</defs>
</svg>
