<svg width="32" height="32" viewBox="0 0 32 32" fill="none" xmlns="http://www.w3.org/2000/svg">
<g clip-path="url(#clip0_618_16233)">
<g clip-path="url(#clip1_618_16233)">
<path d="M15.7593 29.5053V27.2266L9.9589 27.3153C9.60377 27.3153 9.25851 27.3153 8.90339 27.3351C8.68636 27.3449 8.46934 27.3647 8.26218 27.3844L7.09815 27.4929C6.53587 29.5645 6.10182 31.567 5.79602 33.0664C8.6765 33.5695 12.0995 33.8655 15.7593 33.8655V29.4954V29.5053Z" fill="#FFD5C5"/>
<path d="M23.2657 27.3746C23.0487 27.3549 22.8416 27.3352 22.6245 27.3253C22.2694 27.3056 21.9143 27.2957 21.569 27.3056L15.7686 27.2168V33.8656C19.4383 33.8656 22.8514 33.5696 25.7319 33.0665C25.436 31.5671 24.9921 29.5646 24.4298 27.493L23.2657 27.3845V27.3746Z" fill="#FFD5C5"/>
<path d="M5.52923 34.4671C5.66734 33.6977 6.39732 33.1748 7.16676 33.2932C9.74144 33.6681 12.6614 33.8752 15.7589 33.8752V43H33.1601C33.1601 29.0416 25.4854 27.6309 24.4299 27.5125C24.4299 27.5125 24.4299 27.5125 24.4299 27.5027L23.2659 27.3942C23.0488 27.3744 22.8417 27.3547 22.6247 27.3448C22.2695 27.3251 21.9144 27.3152 21.5692 27.3251L15.7687 27.2363L9.96833 27.3251C9.6132 27.3251 9.26793 27.3251 8.91281 27.3448C8.69579 27.3547 8.47876 27.3744 8.27161 27.3942L7.10758 27.5027C7.10758 27.5027 -1.76074 28.0058 -1.76074 43H4.66114C4.75979 40.5339 4.97681 38.0677 5.33194 35.6213C5.33194 35.6213 5.40099 35.1971 5.52923 34.4671Z" fill="#F9C802"/>
<path d="M15.6503 16.8495C12.4147 16.8495 9.32706 16.3563 6.95955 15.4684C5.65741 14.9752 4.8781 14.482 4.47365 14.1367H0.09375C0.09375 16.2083 2.19492 18.053 5.51931 19.3058C8.24195 20.3317 11.7834 20.9532 15.6503 20.9532C19.5172 20.9532 23.0587 20.3317 25.7813 19.3058C29.1057 18.053 31.2068 16.2083 31.2068 14.1367H26.8269C26.4126 14.482 25.6333 14.9851 24.3411 15.4684C21.9735 16.3563 18.8859 16.8495 15.6503 16.8495Z" fill="#F9C802"/>
<path d="M15.6605 29.7708C22.171 29.7708 27.4488 24.4931 27.4488 17.9826C27.4488 11.4721 22.171 6.19434 15.6605 6.19434C9.15003 6.19434 3.87225 11.4721 3.87225 17.9826C3.87225 24.4931 9.15003 29.7708 15.6605 29.7708Z" fill="#FFD5C5"/>
<path d="M4.34668 16.3848L5.26409 17.4501" stroke="#221F1F" stroke-width="0.42418" stroke-linecap="round" stroke-linejoin="round"/>
<path d="M12.3857 20.1435C12.9677 20.1435 13.4511 19.67 13.4511 19.0781C13.4511 18.4862 12.9776 18.0127 12.3857 18.0127C11.7938 18.0127 11.3203 18.4862 11.3203 19.0781C11.3203 19.67 11.7938 20.1435 12.3857 20.1435Z" fill="#303030"/>
<path d="M18.9257 20.1435C19.5077 20.1435 19.9911 19.67 19.9911 19.0781C19.9911 18.4862 19.5176 18.0127 18.9257 18.0127C18.3339 18.0127 17.8604 18.4862 17.8604 19.0781C17.8604 19.67 18.3339 20.1435 18.9257 20.1435Z" fill="#303030"/>
<path d="M15.66 24.0589C14.6637 24.0589 13.6772 23.6841 12.9176 22.9245C12.7006 22.7075 12.7006 22.3622 12.9176 22.1452C13.1347 21.9282 13.4799 21.9282 13.6871 22.1452C14.7722 23.2303 16.538 23.2303 17.6132 22.1452C17.8302 21.9282 18.1755 21.9282 18.3827 22.1452C18.5997 22.3622 18.5997 22.7075 18.3827 22.9146C17.6231 23.6742 16.6366 24.0491 15.6403 24.0491L15.66 24.0589Z" fill="#303030" stroke="#303030" stroke-width="0.286075" stroke-miterlimit="10"/>
<path d="M6.09174 19.4133C5.57878 20.3011 4.70083 20.8831 3.69463 20.8831C2.11629 20.8831 0.84375 19.4429 0.84375 17.6574C0.84375 15.8719 2.12615 14.4316 3.69463 14.4316C4.64164 14.4316 5.48013 14.9545 5.9931 15.7436" fill="#FFD5C5"/>
<path d="M25.7722 20.1137C26.2753 20.597 26.9165 20.8831 27.6267 20.8831C29.2051 20.8831 30.4776 19.4429 30.4776 17.6574C30.4776 15.8719 29.1952 14.4316 27.6267 14.4316C26.6205 14.4316 25.7327 15.0137 25.2296 15.9015" fill="#FFD5C5"/>
<path d="M15.6503 0.730469C15.6503 0.730469 4.19744 1.15465 4.01001 12.647C4.01001 12.8443 4.08893 13.0317 4.24676 13.1501C4.98661 13.7419 7.70925 11.9663 15.6503 11.9663C23.5913 11.9663 26.2942 13.7419 27.044 13.1501C27.2018 13.0317 27.2906 12.8344 27.2807 12.6371C27.1032 1.15465 15.6503 0.730469 15.6503 0.730469Z" fill="#F7DF57"/>
<path d="M15.6997 0C15.0881 0 14.5652 0.374857 14.4271 0.868089C14.3877 1.00619 14.4962 1.13443 14.6343 1.13443H16.7453C16.8834 1.13443 16.992 1.00619 16.9525 0.868089C16.8144 0.364992 16.3014 0 15.68 0L15.6997 0Z" fill="#F9C802"/>
<path d="M27.2708 15.5757C27.1722 14.609 26.7381 13.5239 25.4261 12.8432C23.5814 11.8863 24.3016 11.2945 25.0019 11.0084C24.9625 10.9887 24.9428 10.9689 24.9428 10.9689L15.7884 9.00586L15.6503 9.03545L15.5122 9.00586L6.35776 10.9689C6.35776 10.9689 6.32816 10.9887 6.29857 11.0084C6.99896 11.2945 7.71908 11.8863 5.87439 12.8432C4.54266 13.5337 4.11848 14.6386 4.01984 15.6152C3.90146 16.3254 3.80281 17.4105 4.00997 18.6338C4.00997 18.6338 4.6709 16.2465 5.46007 16.0887C7.88678 15.5757 10.1852 15.3587 10.1852 15.3587L11.6452 13.1293L11.3986 15.2403C12.7599 15.1121 15.5122 15.0825 15.5122 15.0825C15.5122 15.0825 15.5615 15.0825 15.6305 15.0825C15.6305 15.0825 15.6404 15.0825 15.6503 15.0825C15.6503 15.0825 15.6601 15.0825 15.67 15.0825C15.739 15.0825 15.7884 15.0825 15.7884 15.0825C15.7884 15.0825 18.5406 15.1022 19.9019 15.2403L19.6553 13.1293L21.1153 15.3587C21.1153 15.3587 23.4137 15.5757 25.8404 16.0887C26.6296 16.2465 27.2905 18.6338 27.2905 18.6338C27.4977 17.3809 27.3892 16.286 27.2708 15.5757Z" fill="#303030"/>
<path d="M15.6503 11.4142C18.8859 11.4142 21.9735 11.9075 24.3411 12.7953C25.6432 13.2885 26.4225 13.7818 26.8269 14.127H31.2068C31.2068 12.0554 29.1057 10.2108 25.7813 8.95794C23.0587 7.93202 19.5172 7.31055 15.6503 7.31055C11.7834 7.31055 8.24195 7.93202 5.51931 8.95794C2.19492 10.2108 0.09375 12.0554 0.09375 14.127H4.47365C4.88797 13.7818 5.66728 13.2787 6.95955 12.7953C9.32706 11.9075 12.4147 11.4142 15.6503 11.4142Z" fill="#F9C802"/>
</g>
</g>
<defs>
<clipPath id="clip0_618_16233">
<rect width="32" height="32" fill="white"/>
</clipPath>
<clipPath id="clip1_618_16233">
<rect width="34.9209" height="43" fill="white" transform="translate(-1.76074)"/>
</clipPath>
</defs>
</svg>
