<svg width="20" height="20" viewBox="0 0 20 20" fill="none" xmlns="http://www.w3.org/2000/svg">
<path d="M10.0671 17.5721C13.6549 17.5721 16.5633 14.6636 16.5633 11.0758C16.5633 8.67129 15.2569 5.47767 13.3152 3.63268L11.6911 5.79624L8.84902 2.14209C6.0069 4.17217 3.5708 7.90437 3.5708 11.0758C3.5708 14.6636 6.47928 17.5721 10.0671 17.5721Z" fill="#FF5353"/>
<path d="M10.068 15.1348C11.8618 15.1348 13.3161 13.4988 13.3161 11.4806C13.3161 10.8383 13.1688 10.2347 12.9101 9.71024L11.286 11.0746L8.84991 7.82568C8.03788 8.63771 6.81982 9.94711 6.81982 11.4806C6.81982 13.4988 8.27406 15.1348 10.068 15.1348Z" fill="#FFDB48"/>
</svg>
