<svg width="24" height="24" viewBox="0 0 24 24" fill="none" xmlns="http://www.w3.org/2000/svg">
<path d="M12.0807 21.0863C16.3861 21.0863 19.8762 17.5961 19.8762 13.2908C19.8762 10.4054 18.3085 6.57301 15.9784 4.35903L14.0296 6.9553L10.619 2.57031C7.20848 5.00641 4.28516 9.48505 4.28516 13.2908C4.28516 17.5961 7.77533 21.0863 12.0807 21.0863Z" fill="#FF5353"/>
<path d="M12.0814 18.1616C14.234 18.1616 15.9791 16.1984 15.9791 13.7766C15.9791 13.0058 15.8024 12.2815 15.4919 11.6521L13.543 13.2894L10.6197 9.39062C9.64526 10.3651 8.18359 11.9363 8.18359 13.7766C8.18359 16.1984 9.92868 18.1616 12.0814 18.1616Z" fill="#FFDB48"/>
</svg>
