<svg width="24" height="24" viewBox="0 0 24 24" fill="none" xmlns="http://www.w3.org/2000/svg">
<path d="M21.5627 10.6157C21.4364 10.1398 21.0867 9.79982 20.6593 9.66383C21.0479 9.23645 21.145 8.58565 20.8439 8.05142C20.6011 7.62403 20.164 7.3812 19.7171 7.37148C19.9891 6.85668 19.9308 6.20588 19.5132 5.76878C19.1732 5.4191 18.707 5.32197 18.2699 5.42881C18.4058 4.85573 18.1727 4.23407 17.6579 3.92324C17.25 3.68041 16.7643 3.69012 16.3758 3.91353C16.3563 3.33073 15.9775 2.79649 15.4044 2.64108C14.9479 2.51481 14.4817 2.66051 14.1611 2.97134C13.996 2.40796 13.5006 2 12.9081 2C12.4321 2 12.0145 2.26226 11.7911 2.65079C11.4899 2.15541 10.9071 1.89315 10.3341 2.04857C9.87753 2.17484 9.53756 2.54395 9.41129 2.98105C8.99361 2.5828 8.37196 2.48567 7.85715 2.78678C7.43948 3.03933 7.20636 3.48614 7.20636 3.95238C6.71097 3.6707 6.07961 3.72898 5.65222 4.16608C5.31225 4.51576 5.22483 5.00143 5.32197 5.44824C4.7683 5.30254 4.16608 5.54537 3.86496 6.07961C3.63184 6.50699 3.64156 7.00238 3.85525 7.41034C3.29188 7.42976 2.77707 7.8183 2.62165 8.41081C2.49538 8.88677 2.64108 9.36272 2.94219 9.70269C2.39825 9.87753 2 10.3826 2 11.0043C2 11.7619 2.59251 12.3641 3.32102 12.3641C3.41815 12.3641 3.51528 12.3544 3.61242 12.3253C3.63184 12.5196 3.66098 12.7041 3.69012 12.8887H19.9406C19.9794 12.6847 19.9988 12.4807 20.028 12.267C20.232 12.3156 20.4359 12.3156 20.6496 12.267C21.349 12.0727 21.7667 11.3248 21.5821 10.5963L21.5627 10.6157Z" fill="#EEEEEE"/>
<path d="M15.5312 21.5314L15.0649 20.7349H8.51813L8.05189 21.5314C8.05189 21.5314 7.77021 21.9976 8.40157 21.9976H15.1621C15.7934 21.9976 15.5215 21.5314 15.5117 21.5314H15.5312Z" fill="#DBDBDB"/>
<path d="M2.96168 12.2158C2.53429 12.2158 2.23318 12.6626 2.34003 13.1192C3.4862 17.9467 7.28412 21.4824 11.8008 21.4824C16.3175 21.4824 20.1155 17.937 21.2616 13.1192C21.3685 12.6626 21.0674 12.2158 20.64 12.2158H2.96168Z" fill="#DBDBDB"/>
</svg>
