<svg width="24" height="24" viewBox="0 0 24 24" fill="none" xmlns="http://www.w3.org/2000/svg">
<circle cx="12" cy="14.6826" r="7.60041" stroke="#D9D9D9" stroke-width="2.53347"/>
<g clip-path="url(#clip0_2_969)">
<path d="M9.11674 0.75L7.2793 2.62211H9.83323L9.11674 0.75Z" fill="#08D9FF"/>
<path d="M16.7208 2.62211L14.8834 0.75L14.1611 2.62211H16.7208Z" fill="#08D9FF"/>
<path d="M14.161 2.61328L12 8.24117L16.7207 2.61328H14.161Z" fill="#00A3FE"/>
<path d="M7.2793 2.61328L12 8.24117L9.83323 2.61328H7.2793Z" fill="#00A3FE"/>
<path d="M12.0005 0.75H9.11719L9.83367 2.62211L12.0005 0.75Z" fill="#32E8FE"/>
<path d="M14.8833 0.75H12L14.161 2.62211L14.8833 0.75Z" fill="#32E8FE"/>
<path d="M9.83398 2.62211H12.0008V0.75L9.83398 2.62211Z" fill="#80EEFD"/>
<path d="M12 0.75V2.62211H14.161L12 0.75Z" fill="#80EEFD"/>
<path d="M12.0008 2.61328H9.83398L12.0008 8.24117L14.1618 2.61328H12.0008Z" fill="#33B3FE"/>
</g>
<defs>
<clipPath id="clip0_2_969">
<rect width="9.44145" height="7.5" fill="white" transform="translate(7.2793 0.75)"/>
</clipPath>
</defs>
</svg>
