<svg width="24" height="24" viewBox="0 0 24 24" fill="none" xmlns="http://www.w3.org/2000/svg">
<g clip-path="url(#clip0_2_803)">
<g clip-path="url(#clip1_2_803)">
<path d="M13.989 1.18991L12.2124 0.159188C12.1202 0.108909 12.0029 0.175948 12.0029 0.276506V2.33796C12.0029 2.4469 12.1202 2.51394 12.2124 2.45528L13.9973 1.42455C14.0895 1.37427 14.0895 1.24019 13.9973 1.18991H13.989Z" fill="#A67650"/>
<path d="M12.0449 4.29919V0.226562" stroke="#383838" stroke-width="0.452514" stroke-linecap="round" stroke-linejoin="round"/>
<path d="M1.09277 8.54053H8.39166V24.0014H1.93076C1.46987 24.0014 1.09277 23.6243 1.09277 23.1634V8.54053Z" fill="#D8DAD8"/>
<path d="M15.6992 8.57373H22.9981V23.1715C22.9981 23.6324 22.621 24.0095 22.1601 24.0095H15.6992V8.57373Z" fill="#D8DAD8"/>
<path d="M12.0452 4.73291L8.3916 9.09883V23.9983H15.6989V9.13235L12.0452 4.73291Z" fill="#CECECE"/>
<path d="M22.9973 9.40165H15.6985C15.4722 9.40165 15.2459 9.30947 15.0951 9.14187L12.0532 5.8821L9.0113 9.11673C8.85208 9.28433 8.6342 9.37651 8.40795 9.37651H1.0923C0.63141 9.37651 0.262695 9.00779 0.262695 8.5469C0.262695 8.08601 0.63141 7.71729 1.0923 7.71729H8.03085L11.4331 4.09718C11.5923 3.92958 11.8102 3.8374 12.0364 3.8374C12.2627 3.8374 12.489 3.92958 12.6398 4.09718L16.042 7.74243H22.9806C23.4415 7.74243 23.8102 8.11115 23.8102 8.57204C23.8102 9.03293 23.4415 9.40165 22.9806 9.40165H22.9973Z" fill="#A67650"/>
<path d="M10.9805 20.8247H13.1174C13.4023 20.8247 13.6369 21.0593 13.6369 21.3443V24.0007H10.4609V21.3443C10.4609 21.0593 10.6956 20.8247 10.9805 20.8247Z" fill="#A2A2A2"/>
<path d="M12.0445 15.2253C13.3635 15.2253 14.4328 14.156 14.4328 12.837C14.4328 11.518 13.3635 10.4487 12.0445 10.4487C10.7255 10.4487 9.65625 11.518 9.65625 12.837C9.65625 14.156 10.7255 15.2253 12.0445 15.2253Z" fill="white"/>
<path d="M12.0449 11.1953V12.8378L12.9583 13.7596" stroke="#7F7F7F" stroke-width="0.477654" stroke-linecap="round" stroke-linejoin="round"/>
</g>
</g>
<defs>
<clipPath id="clip0_2_803">
<rect width="24" height="24" fill="white"/>
</clipPath>
<clipPath id="clip1_2_803">
<rect width="23.5642" height="24" fill="white" transform="translate(0.262695)"/>
</clipPath>
</defs>
</svg>
