<svg width="24" height="24" viewBox="0 0 24 24" fill="none" xmlns="http://www.w3.org/2000/svg">
<g clip-path="url(#clip0_109_6251)">
<path d="M20.1986 14.4998C21.748 14.4998 22.9998 13.248 22.9998 11.6986C22.9998 10.1492 21.748 8.89746 20.1986 8.89746C18.6492 8.89746 17.3975 10.1492 17.3975 11.6986C17.3975 13.248 18.6492 14.4998 20.1986 14.4998Z" fill="#78A3FF"/>
<path d="M8.77469 8.02265L9.28241 7.26984C10.219 7.26984 11.1557 7.051 11.996 6.64833L16.7055 4.32861V19.096L11.996 16.7763C11.1557 16.3649 10.219 16.146 9.28241 16.146L8.77469 14.798V8.02265ZM5.16819 21.5733H7.10275C7.61046 21.5733 8.01313 21.1706 8.01313 20.6629V14.7104H4.25781V20.6629C4.25781 21.1706 4.66048 21.5733 5.16819 21.5733Z" fill="#9BB8FF"/>
<path d="M18.6059 2C17.3366 2 16.2949 3.03293 16.2949 4.31096V19.0959C16.2949 20.3652 17.3279 21.4068 18.6059 21.4068C19.8839 21.4068 20.9168 20.3739 20.9168 19.0959V4.31096C20.9168 3.03293 19.8752 2 18.6059 2Z" fill="#008CE3"/>
<path d="M3.29554 7.26953H9.51938V16.137H3.29554C2.57774 16.137 2 15.5767 2 14.8765V8.53006C2 7.82976 2.57774 7.26953 3.29554 7.26953Z" fill="#008CE3"/>
</g>
<defs>
<clipPath id="clip0_109_6251">
<rect width="21" height="19.5732" fill="white" transform="translate(2 2)"/>
</clipPath>
</defs>
</svg>
