<svg width="24" height="24" viewBox="0 0 24 24" fill="none" xmlns="http://www.w3.org/2000/svg">
<circle cx="12" cy="12" r="12" fill="#DBEAFE"/>
<circle cx="11.9997" cy="12.0002" r="8.72727" fill="#BFDCF5"/>
<g clip-path="url(#clip0_104_5055)">
<path d="M15.6067 11.0787H15.3819L15.7823 9.49136C15.8104 9.37196 15.7823 9.24553 15.712 9.1472C15.6418 9.04887 15.5224 8.99268 15.396 8.99268H14.7287C14.5461 8.99268 14.3845 9.1191 14.3424 9.30172L13.8578 11.3386C13.8578 11.3386 13.8507 11.3667 13.8437 11.3807L13.5768 12.4835L12.6708 9.35088C12.6637 9.28065 12.6427 9.21041 12.6005 9.15422C12.5795 9.12613 12.5514 9.11208 12.5233 9.09101C12.5162 9.08398 12.5022 9.07696 12.4952 9.06994C12.4671 9.05589 12.446 9.04184 12.4179 9.02779C12.3828 9.01375 12.3477 9.00672 12.3055 8.9997C12.2985 8.9997 12.2915 8.9997 12.2774 8.9997H11.7155C11.7155 8.9997 11.7015 8.9997 11.6874 8.9997C11.6523 8.9997 11.6102 9.01375 11.5751 9.02779C11.547 9.04184 11.5189 9.04887 11.4978 9.06994C11.4908 9.06994 11.4767 9.08398 11.4697 9.09101C11.4416 9.11208 11.4135 9.12613 11.3924 9.15422C11.3503 9.21041 11.3292 9.28065 11.3222 9.35088L10.4162 12.4905L10.1493 11.3878C10.1493 11.3878 10.1422 11.3597 10.1352 11.3456L9.66462 9.30874C9.62248 9.13315 9.46093 8.9997 9.27831 8.9997H8.61106C8.49166 8.9997 8.37226 9.05589 8.295 9.15422C8.21773 9.25255 8.18964 9.37898 8.22476 9.49838L8.62511 11.0857H8.40035C8.18262 11.0857 8 11.2613 8 11.4861V11.9988C8 12.2166 8.17559 12.3992 8.40035 12.3992H8.9482L9.65057 15.1595C9.69271 15.3351 9.85426 15.4615 10.0369 15.4615H10.676C10.8516 15.4615 11.0132 15.3421 11.0623 15.1735L12.0105 11.8513L12.9587 15.1735C13.0079 15.3421 13.1624 15.4615 13.345 15.4615H13.9842C14.1668 15.4615 14.3284 15.3351 14.3705 15.1595L15.0729 12.3992H15.6207C15.8385 12.3992 16.0211 12.2236 16.0211 11.9988V11.4861C16.0211 11.2684 15.8455 11.0857 15.6207 11.0857L15.6067 11.0787Z" fill="#008CE3"/>
</g>
<defs>
<clipPath id="clip0_104_5055">
<rect width="8" height="6.44776" fill="white" transform="translate(8 9)"/>
</clipPath>
</defs>
</svg>
