<svg width="20" height="20" viewBox="0 0 20 20" fill="none" xmlns="http://www.w3.org/2000/svg">
<g clip-path="url(#clip0_586_15973)">
<g clip-path="url(#clip1_586_15973)">
<path d="M12.6615 1.66221L13.3798 1.85911C13.9482 2.01493 14.2858 2.60751 14.13 3.17596L13.7631 4.5144C13.7008 4.74178 13.4638 4.87682 13.2364 4.81449L11.2778 4.27762C11.0505 4.2153 10.9154 3.97826 10.9777 3.75089L11.3446 2.41245C11.5004 1.844 12.093 1.50639 12.6615 1.66221Z" fill="#8F8F8F"/>
<path d="M4.33394 8.22787L3.79708 10.1864C3.73475 10.4138 3.49772 10.5489 3.27034 10.4865L1.9319 10.1196C1.36345 9.96383 1.02585 9.37124 1.18167 8.8028L1.37856 8.08448C1.53438 7.51604 2.12696 7.17843 2.69541 7.33425L4.03385 7.70113C4.26123 7.76346 4.39627 8.00049 4.33394 8.22787Z" fill="#8F8F8F"/>
<path d="M7.78273 4.34146L6.80662 2.62814C6.60006 2.26559 6.13871 2.13913 5.77615 2.34568L5.47819 2.51544C5.11563 2.72199 4.98917 3.18335 5.19572 3.5459L6.17184 5.25922C6.37839 5.62178 6.83975 5.74824 7.2023 5.54168L7.50027 5.37193C7.86282 5.16537 7.98929 4.70402 7.78273 4.34146Z" fill="#DF3C0F"/>
<path d="M14.7542 18.4507C18.5931 16.2636 19.9322 11.3785 17.7451 7.53953C15.5579 3.70057 10.6728 2.3615 6.83387 4.54863C2.99491 6.73577 1.65584 11.6209 3.84297 15.4598C6.0301 19.2988 10.9152 20.6379 14.7542 18.4507Z" fill="#FF8686"/>
<path d="M13.7492 16.6869C16.6285 15.0466 17.6328 11.3827 15.9924 8.50352C14.3521 5.6243 10.6882 4.62 7.80899 6.26035C4.92977 7.9007 3.92547 11.5645 5.56582 14.4438C7.20617 17.323 10.87 18.3273 13.7492 16.6869Z" fill="#FFF7F6"/>
<path d="M4.32741 2.28228L6.16644 1.23455C6.67857 0.942777 7.33166 1.12572 7.62343 1.63786L8.12475 2.5178C8.24146 2.72265 8.16934 2.98575 7.96449 3.10246L5.00808 4.78678C4.80322 4.90349 4.54013 4.83138 4.42342 4.62652L3.9221 3.74658C3.63498 3.2318 3.81062 2.57671 4.32741 2.28228Z" fill="#FF8686"/>
<path d="M10.7789 11.4736L8.79883 7.99805" stroke="#DF3C0F" stroke-width="1.2" stroke-linecap="round"/>
<path d="M10.7793 11.4736L13.3859 9.98857" stroke="#DF3C0F" stroke-width="1.2" stroke-linecap="round"/>
<circle cx="10.7789" cy="11.4735" r="1" transform="rotate(-29.671 10.7789 11.4735)" fill="#757575"/>
</g>
</g>
<defs>
<clipPath id="clip0_586_15973">
<rect width="20" height="20" fill="white"/>
</clipPath>
<clipPath id="clip1_586_15973">
<rect width="16" height="19.2096" fill="white" transform="translate(-1.70605 5.71973) rotate(-29.671)"/>
</clipPath>
</defs>
</svg>
