<svg width="24" height="24" viewBox="0 0 24 24" fill="none" xmlns="http://www.w3.org/2000/svg">
<g clip-path="url(#clip0_109_6194)">
<g clip-path="url(#clip1_109_6194)">
<path d="M21.5095 10.7745C22.935 9.34904 23.4893 7.38687 23.1814 5.53907C23.1418 5.3147 22.869 5.22671 22.7106 5.38509C22.0375 6.05822 20.656 7.43966 20.656 7.43966L17.264 6.52896L16.3533 3.13694L18.3903 1.09997C18.5575 0.932793 18.4607 0.642426 18.2275 0.60283C16.1993 0.272868 14.0392 0.981188 12.6005 2.73659C11.1971 4.4568 10.8979 6.83253 11.7206 8.8255L2.18252 17.7829C1.12664 18.8388 1.12664 20.5546 2.18252 21.6105C3.2384 22.6663 4.95421 22.6663 6.01009 21.6105L14.9675 12.0723C17.1452 12.9742 19.7453 12.5475 21.5139 10.7789L21.5095 10.7745ZM2.92164 20.8625C2.30131 20.2422 2.30131 19.2391 2.92164 18.6188C3.54197 17.9985 4.54505 17.9985 5.16538 18.6188C5.78571 19.2391 5.78571 20.2422 5.16538 20.8625C4.54505 21.4829 3.54197 21.4829 2.92164 20.8625Z" fill="#C1C1C1"/>
</g>
</g>
<defs>
<clipPath id="clip0_109_6194">
<rect width="24" height="24" fill="white"/>
</clipPath>
<clipPath id="clip1_109_6194">
<rect width="12.0144" height="26.2686" fill="white" transform="translate(16.5068 -1.21436) rotate(45)"/>
</clipPath>
</defs>
</svg>
